<?xml version="1.0" encoding="UTF-8"?>
<svg id="uuid-8a490f98-f3f2-4cb4-8dc7-ee3153821c53" data-name="9" xmlns="http://www.w3.org/2000/svg" xmlns:xlink="http://www.w3.org/1999/xlink" viewBox="0 0 1000 1000">
  <defs>
    <style>
      .uuid-4e3a06e5-10a1-46a4-90b2-170478d44e47 {
        clip-path: url(#uuid-565749d6-d01b-402d-b578-1a8eae33707d);
      }

      .uuid-6bf86bae-7561-4d70-b718-37dfefa5adb5 {
        fill: #2c3e50;
      }

      .uuid-6bf86bae-7561-4d70-b718-37dfefa5adb5, .uuid-c22eced4-2635-4d4c-a27e-7d1a2f668a03, .uuid-f6e1ab98-ebc2-44ab-ab39-f3f2526b6982 {
        stroke-width: 0px;
      }

      .uuid-c22eced4-2635-4d4c-a27e-7d1a2f668a03 {
        fill: none;
      }

      .uuid-f6e1ab98-ebc2-44ab-ab39-f3f2526b6982 {
        fill: #fff;
      }
    </style>
    <clipPath id="uuid-565749d6-d01b-402d-b578-1a8eae33707d">
      <rect class="uuid-c22eced4-2635-4d4c-a27e-7d1a2f668a03" width="1000" height="1000"/>
    </clipPath>
  </defs>
  <g class="uuid-4e3a06e5-10a1-46a4-90b2-170478d44e47">
    <path class="uuid-f6e1ab98-ebc2-44ab-ab39-f3f2526b6982" d="m1000,1000H0V0h1000v1000Z"/>
    <rect class="uuid-f6e1ab98-ebc2-44ab-ab39-f3f2526b6982" width="1000" height="1000"/>
    <path class="uuid-6bf86bae-7561-4d70-b718-37dfefa5adb5" d="m-49.62,26.11c.32.4.81.63,1.32.63h17.04c.94,0,1.7-.76,1.7-1.7v-14.34h9.57v14.34c0,.94.76,1.7,1.7,1.7s1.7-.76,1.7-1.7v-14.34H-7.02v14.34c0,.94.76,1.7,1.7,1.7H5.31c.94,0,1.7-.76,1.7-1.7v-14.34h9.57v14.34c0,.94.76,1.7,1.7,1.7s1.7-.76,1.7-1.7v-14.34h9.57v14.34c0,.94.76,1.7,1.7,1.7h17.04s0,0,0,0c.94,0,1.7-.76,1.7-1.7,0-.19-.03-.36-.08-.53-2.47-11.16-8.72-21.3-17.63-28.57-1.33-1.08-2.71-2.08-4.13-3.02v-9.24h.26s0,0,0,0c.94,0,1.7-.76,1.7-1.7,0-.15-.02-.3-.06-.44l-1.09-6.86c-.13-.83-.84-1.43-1.68-1.43h-13.14c-.84,0-1.55.61-1.68,1.43l-1.12,7.03c-.08.49.06.99.39,1.37s.8.6,1.29.6h.26v2.55C8.98-14.93,4.51-15.54,0-15.54c-4.89,0-9.72.72-14.36,2.07v-2.85h.26s0,0,0,0c.94,0,1.7-.76,1.7-1.7,0-.15-.02-.3-.06-.44l-1.09-6.86c-.13-.83-.84-1.43-1.68-1.43h-13.14c-.84,0-1.55.61-1.68,1.43l-1.12,7.03c-.08.49.06.99.39,1.37s.8.6,1.29.6h.26V-6.36c-1.05.73-2.07,1.49-3.07,2.3-8.95,7.3-15.23,17.51-17.67,28.74-.11.5.01,1.03.34,1.43ZM15.61-23.34h10.24l.58,3.62h-11.39l.58-3.62Zm9.15,7.03v7.17c-2.58-1.43-5.28-2.64-8.06-3.6v-3.57h8.06Zm-51.67-7.03h10.24l.58,3.62h-11.39l.58-3.62Zm1.09,14.8v-7.77h8.06v3.95c-1.82.67-3.6,1.46-5.33,2.34-.03.02-.06.03-.09.05-.56.28-1.11.58-1.65.88-.14.08-.27.15-.41.23-.19.11-.39.21-.59.33ZM0-12.14c21.58,0,40.65,14.8,46.14,35.48h-13.18v-14.34c0-.94-.76-1.7-1.7-1.7H5.31c-.94,0-1.7.76-1.7,1.7v14.34H-3.62v-14.34c0-.94-.76-1.7-1.7-1.7h-25.94c-.94,0-1.7.76-1.7,1.7v14.34h-13.18C-40.66,2.66-21.59-12.14,0-12.14Z"/>
    <path class="uuid-6bf86bae-7561-4d70-b718-37dfefa5adb5" d="m134.6,100h-19.19c-.51,0-.92.41-.92.92v22.11h-4.01c-1.23,0-2.32.82-2.65,2l-6.11,21.45c-.24.83-.07,1.73.45,2.42.52.69,1.34,1.1,2.2,1.1h41.27s.01,0,.02,0c0,0,.01,0,.02,0,1.51,0,2.74-1.24,2.74-2.76,0-.31-.05-.62-.15-.91l-6.07-21.3c-.34-1.18-1.43-2-2.65-2h-4.01v-22.11c0-.51-.41-.92-.92-.92Zm-18.27,1.84h17.36v3.45h-11.23c-.51,0-.92.41-.92.92v3.68c0,.51.41.92.92.92h11.23v1.15h-11.23c-.51,0-.92.41-.92.92v3.68c0,.51.41.92.92.92h11.23v1.15h-11.23c-.51,0-.92.41-.92.92v3.68c0,.51.41.92.92.92h11.23v1.15h-11.23c-.51,0-.92.41-.92.92v3.68c0,.51.41.92.92.92h11.23v11.19h-17.36v-40.15Zm17.28,5.29v1.84h-10.23v-1.84h10.23Zm0,6.67v1.84h-10.23v-1.84h10.23Zm0,6.67v1.84h-10.23v-1.84h10.23Zm0,6.67v1.84h-10.23v-1.84h10.23Zm5.92-2.26c.41,0,.77.27.88.67l6.08,21.33s.01.04.02.06c.04.1.06.21.06.32,0,.51-.41.92-.92.92h-41.28c-.29,0-.56-.14-.73-.37-.17-.23-.23-.53-.15-.81l6.11-21.45c.11-.39.48-.67.88-.67h4.01v18.04c0,.51.41.92.92.92h19.19c.51,0,.92-.41.92-.92v-18.04h4.01Z"/>
    <path class="uuid-6bf86bae-7561-4d70-b718-37dfefa5adb5" d="m100.24,386.49c.17.19.42.3.68.3h48.17c.26,0,.51-.11.68-.3.17-.19.26-.45.23-.71-.62-6.16-3.5-11.86-8.1-16.04-4.63-4.21-10.63-6.53-16.9-6.53s-12.27,2.32-16.9,6.53c-4.6,4.18-7.48,9.88-8.1,16.04-.03.26.06.51.23.71Zm31.48-1.53h-5.8v-14.77h5.8v14.77Zm-7.63,0h-5.8v-14.77h5.8v14.77Zm.92-19.91c11.66,0,21.4,8.49,23.05,19.91h-14.5v-15.69c0-.51-.41-.92-.92-.92h-15.27c-.51,0-.92.41-.92.92v15.69h-14.5c1.65-11.42,11.38-19.91,23.05-19.91Z"/>
    <g>
      <rect class="uuid-6bf86bae-7561-4d70-b718-37dfefa5adb5" x="105.32" y="627.93" width="1.91" height="1.7"/>
      <rect class="uuid-6bf86bae-7561-4d70-b718-37dfefa5adb5" x="109.04" y="627.93" width="1.91" height="1.7"/>
      <rect class="uuid-6bf86bae-7561-4d70-b718-37dfefa5adb5" x="112.77" y="627.93" width="1.91" height="1.7"/>
      <rect class="uuid-6bf86bae-7561-4d70-b718-37dfefa5adb5" x="116.49" y="627.93" width="1.91" height="1.7"/>
      <rect class="uuid-6bf86bae-7561-4d70-b718-37dfefa5adb5" x="120.21" y="627.93" width="1.91" height="1.7"/>
      <rect class="uuid-6bf86bae-7561-4d70-b718-37dfefa5adb5" x="123.94" y="627.93" width="1.91" height="1.7"/>
      <rect class="uuid-6bf86bae-7561-4d70-b718-37dfefa5adb5" x="127.66" y="627.93" width="1.91" height="1.7"/>
      <rect class="uuid-6bf86bae-7561-4d70-b718-37dfefa5adb5" x="131.38" y="627.93" width="1.91" height="1.7"/>
      <rect class="uuid-6bf86bae-7561-4d70-b718-37dfefa5adb5" x="135.11" y="627.93" width="1.91" height="1.7"/>
      <rect class="uuid-6bf86bae-7561-4d70-b718-37dfefa5adb5" x="138.83" y="627.93" width="1.91" height="1.7"/>
      <rect class="uuid-6bf86bae-7561-4d70-b718-37dfefa5adb5" x="142.55" y="627.93" width="1.91" height="1.7"/>
      <path class="uuid-6bf86bae-7561-4d70-b718-37dfefa5adb5" d="m149.96,623.95l-2.13-7.02c-.11-.36-.44-.6-.81-.6h-6.65v-1.38c0-.47-.38-.85-.85-.85h-5.05c-.47,0-.85.38-.85.85v1.38h-17.93v-1.38c0-.47-.38-.85-.85-.85h-5.05c-.47,0-.85.38-.85.85v1.38h-5.96c-.37,0-.71.25-.81.6l-2.13,7.02c-.08.26-.03.54.13.75.16.22.41.34.68.34h.43v10c0,.47.38.85.85.85h45.74c.47,0,.85-.38.85-.85v-10h.43c.27,0,.52-.13.68-.34.16-.22.21-.5.13-.75Zm-14.64-6.77v-1.38h3.35v1.97h-3.35v-.59Zm-24.68,0v-1.38h3.35v1.97h-3.35v-.59Zm36.38,17.02h-44.04v-9.15h44.04v9.15Zm.85-10.85h-45.87l1.61-5.32h5.32v.59c0,.47.38.85.85.85h5.05c.47,0,.85-.38.85-.85v-.59h17.93v.59c0,.47.38.85.85.85h5.05c.47,0,.85-.38.85-.85v-.59h6.02l1.61,5.32h-.13Z"/>
    </g>
    <path class="uuid-6bf86bae-7561-4d70-b718-37dfefa5adb5" d="m145.78,890.59c-.15-.17-.37-.27-.6-.27h-1.34v-16.69h.9c.44,0,.8-.36.8-.8v-2.81h1.01c.44,0,.8-.36.8-.8v-2.81c0-.29-.16-.56-.41-.7l-21.62-12.07c-.24-.14-.54-.14-.79,0l-21.47,12.07c-.25.14-.41.41-.41.7v2.81c0,.44.36.8.8.8h1.01v2.81c0,.44.36.8.8.8h.9v16.69h-1.34c-.23,0-.45.1-.6.27l-4.02,4.56c-.21.24-.26.57-.13.86.13.29.42.47.73.47h48.39c.32,0,.6-.19.73-.47.13-.29.08-.63-.13-.86l-4.02-4.56Zm-3.55-.27h-2.61v-16.69h2.61v16.69Zm-4.99,0v-7.7c0-.44-.36-.8-.8-.8h-6.33c-.44,0-.8.36-.8.8v7.7h-5.13v-2.69h0c.44,0,.8-.36.8-.8v-4.19c0-.44-.36-.8-.8-.8h-3.02v-3.41c0-.44-.36-.8-.8-.8h-6.13c-.44,0-.8.36-.8.8v4.21c0,.37.26.69.6.78v2.61h0c-.44,0-.8.36-.8.8v3.49h-1.21v-16.69h26v16.69h-.77Zm-6.33-2.69h4.72v2.6h-4.72v-2.6Zm4.72-1.61h-4.72v-2.6h4.72v2.6Zm-16.08-4.19h-4.52v-2.6h4.52v2.6Zm-3.92,1.61h7.74v2.58h-7.74v-2.58Zm-.8,4.19h7.74v2.6h-7.74v-2.6Zm-10.56-20.77l20.67-11.62,20.82,11.62v1.54h-41.48v-1.54Zm1.81,3.15h37.86v2.01h-37.86v-2.01h0Zm1.71,3.62h2.61v16.69h-2.61v-16.69Zm-5.19,21.24l2.6-2.95h39.62l2.6,2.95h-44.83Z"/>
    <path class="uuid-6bf86bae-7561-4d70-b718-37dfefa5adb5" d="m395.78,140.59c-.15-.17-.37-.27-.6-.27h-1.34v-16.69h.9c.44,0,.8-.36.8-.8v-2.81h1.01c.44,0,.8-.36.8-.8v-2.81c0-.29-.16-.56-.41-.7l-21.62-12.07c-.24-.14-.54-.14-.79,0l-21.47,12.07c-.25.14-.41.41-.41.7v2.81c0,.44.36.8.8.8h1.01v2.81c0,.44.36.8.8.8h.9v16.69h-1.34c-.23,0-.45.1-.6.27l-4.02,4.56c-.21.24-.26.57-.13.86.13.29.42.47.73.47h48.39c.32,0,.6-.19.73-.47.13-.29.08-.63-.13-.86l-4.02-4.56Zm-3.55-.27h-2.61v-16.69h2.61v16.69Zm-4.99,0v-7.7c0-.44-.36-.8-.8-.8h-6.33c-.44,0-.8.36-.8.8v7.7h-5.13v-2.69h0c.44,0,.8-.36.8-.8v-4.19c0-.44-.36-.8-.8-.8h-3.02v-3.41c0-.44-.36-.8-.8-.8h-6.13c-.44,0-.8.36-.8.8v4.21c0,.37.26.69.6.78v2.61h0c-.44,0-.8.36-.8.8v3.49h-1.21v-16.69h26v16.69h-.77Zm-6.33-2.69h4.72v2.6h-4.72v-2.6Zm4.72-1.61h-4.72v-2.6h4.72v2.6Zm-16.08-4.19h-4.52v-2.6h4.52v2.6Zm-3.92,1.61h7.74v2.58h-7.74v-2.58Zm-.8,4.19h7.74v2.6h-7.74v-2.6Zm-10.56-20.77l20.67-11.62,20.82,11.62v1.54h-41.48v-1.54Zm1.81,3.15h37.86v2.01h-37.86v-2.01h0Zm1.71,3.62h2.61v16.69h-2.61v-16.69Zm-5.19,21.24l2.6-2.95h39.62l2.6,2.95h-44.83Z"/>
    <g>
      <path class="uuid-6bf86bae-7561-4d70-b718-37dfefa5adb5" d="m368.89,392.19h12.22c.46,0,.83-.37.83-.83v-2.99c0-.46-.37-.83-.83-.83h-12.22c-.46,0-.83.37-.83.83v2.99c0,.46.37.83.83.83Zm.83-2.99h10.56v1.32h-10.56v-1.32Z"/>
      <path class="uuid-6bf86bae-7561-4d70-b718-37dfefa5adb5" d="m399.17,372.26h-6.98v-6.6c0-.28-.15-.55-.39-.7l-16.35-10.42c-.27-.17-.62-.17-.9,0l-16.35,10.42c-.24.15-.39.42-.39.7v6.6h-6.98c-.46,0-.83.37-.83.83v21.67c0,.46.37.83.83.83h48.33c.46,0,.83-.37.83-.83v-21.67c0-.46-.37-.83-.83-.83Zm-39.69-6.14l15.52-9.89,15.52,9.89v6.11h-1.81v-3.64c0-1.48-1.21-2.69-2.69-2.69s-2.69,1.21-2.69,2.69v3.64h-1.96v-3.64c0-1.48-1.21-2.69-2.69-2.69s-2.69,1.21-2.69,2.69v3.64h-1.96v-3.64c0-1.48-1.21-2.69-2.69-2.69s-2.69,1.21-2.69,2.69v3.64h-1.96v-3.64c0-1.48-1.21-2.69-2.69-2.69s-2.69,1.21-2.69,2.69v3.64h-1.81v-6.11Zm27.56,2.47v3.67h-2.05v-3.67c0-.57.46-1.03,1.03-1.03s1.03.46,1.03,1.03Zm-7.34,0v3.67h-2.05v-3.67c0-.57.46-1.03,1.03-1.03s1.03.46,1.03,1.03Zm-7.35,0v3.67h-2.05v-3.67c0-.57.46-1.03,1.03-1.03s1.03.46,1.03,1.03Zm-7.34,0v3.67h-2.05v-3.67c0-.57.46-1.03,1.03-1.03s1.03.46,1.03,1.03Zm-13.34,8.67h9.37v1.32h-9.37v-1.32Zm0,5.97h9.37v1.32h-9.37v-1.32Zm0,5.97h9.37v1.32h-9.37v-1.32Zm46.67,1.32h-9.38v-1.32h9.38v1.32Zm0-5.97h-9.38v-1.32h9.38v1.32Zm0-5.97h-9.38v-1.32h9.38v1.32Zm0-2.99h-10.21c-.46,0-.83.37-.83.83v2.99c0,.46.37.83.83.83h10.21v1.32h-10.21c-.46,0-.83.37-.83.83v2.99c0,.46.37.83.83.83h10.21v1.32h-10.21c-.46,0-.83.37-.83.83v2.99c0,.46.37.83.83.83h10.21v1.74h-46.67v-1.74h10.21c.46,0,.83-.37.83-.83v-2.99c0-.46-.37-.83-.83-.83h-10.21v-1.32h10.21c.46,0,.83-.37.83-.83v-2.99c0-.46-.37-.83-.83-.83h-10.21v-1.32h10.21c.46,0,.83-.37.83-.83v-2.99c0-.46-.37-.83-.83-.83h-10.21v-1.67h46.67v1.67h0Z"/>
      <path class="uuid-6bf86bae-7561-4d70-b718-37dfefa5adb5" d="m368.89,380.25h12.22c.46,0,.83-.37.83-.83v-2.99c0-.46-.37-.83-.83-.83h-12.22c-.46,0-.83.37-.83.83v2.99c0,.46.37.83.83.83Zm.83-2.99h10.56v1.32h-10.56v-1.32Z"/>
      <path class="uuid-6bf86bae-7561-4d70-b718-37dfefa5adb5" d="m368.89,386.22h12.22c.46,0,.83-.37.83-.83v-2.99c0-.46-.37-.83-.83-.83h-12.22c-.46,0-.83.37-.83.83v2.99c0,.46.37.83.83.83Zm.83-2.99h10.56v1.32h-10.56v-1.32Z"/>
    </g>
    <path class="uuid-6bf86bae-7561-4d70-b718-37dfefa5adb5" d="m350.24,636.49c.17.19.42.3.68.3h48.17c.26,0,.51-.11.68-.3.17-.19.26-.45.23-.71-.62-6.16-3.5-11.86-8.1-16.04-4.63-4.21-10.63-6.53-16.9-6.53s-12.27,2.32-16.9,6.53c-4.6,4.18-7.48,9.88-8.1,16.04-.03.26.06.51.23.71Zm31.48-1.53h-5.8v-14.77h5.8v14.77Zm-7.63,0h-5.8v-14.77h5.8v14.77Zm.92-19.91c11.66,0,21.4,8.49,23.05,19.91h-14.5v-15.69c0-.51-.41-.92-.92-.92h-15.27c-.51,0-.92.41-.92.92v15.69h-14.5c1.65-11.42,11.38-19.91,23.05-19.91Z"/>
    <g>
      <rect class="uuid-6bf86bae-7561-4d70-b718-37dfefa5adb5" x="355.32" y="877.93" width="1.91" height="1.7"/>
      <rect class="uuid-6bf86bae-7561-4d70-b718-37dfefa5adb5" x="359.04" y="877.93" width="1.91" height="1.7"/>
      <rect class="uuid-6bf86bae-7561-4d70-b718-37dfefa5adb5" x="362.77" y="877.93" width="1.91" height="1.7"/>
      <rect class="uuid-6bf86bae-7561-4d70-b718-37dfefa5adb5" x="366.49" y="877.93" width="1.91" height="1.7"/>
      <rect class="uuid-6bf86bae-7561-4d70-b718-37dfefa5adb5" x="370.21" y="877.93" width="1.91" height="1.7"/>
      <rect class="uuid-6bf86bae-7561-4d70-b718-37dfefa5adb5" x="373.94" y="877.93" width="1.91" height="1.7"/>
      <rect class="uuid-6bf86bae-7561-4d70-b718-37dfefa5adb5" x="377.66" y="877.93" width="1.91" height="1.7"/>
      <rect class="uuid-6bf86bae-7561-4d70-b718-37dfefa5adb5" x="381.38" y="877.93" width="1.91" height="1.7"/>
      <rect class="uuid-6bf86bae-7561-4d70-b718-37dfefa5adb5" x="385.11" y="877.93" width="1.91" height="1.7"/>
      <rect class="uuid-6bf86bae-7561-4d70-b718-37dfefa5adb5" x="388.83" y="877.93" width="1.91" height="1.7"/>
      <rect class="uuid-6bf86bae-7561-4d70-b718-37dfefa5adb5" x="392.55" y="877.93" width="1.91" height="1.7"/>
      <path class="uuid-6bf86bae-7561-4d70-b718-37dfefa5adb5" d="m399.96,873.95l-2.13-7.02c-.11-.36-.44-.6-.81-.6h-6.65v-1.38c0-.47-.38-.85-.85-.85h-5.05c-.47,0-.85.38-.85.85v1.38h-17.93v-1.38c0-.47-.38-.85-.85-.85h-5.05c-.47,0-.85.38-.85.85v1.38h-5.96c-.37,0-.71.25-.81.6l-2.13,7.02c-.08.26-.03.54.13.75.16.22.41.34.68.34h.43v10c0,.47.38.85.85.85h45.74c.47,0,.85-.38.85-.85v-10h.43c.27,0,.52-.13.68-.34.16-.22.21-.5.13-.75Zm-14.64-6.77v-1.38h3.35v1.97h-3.35v-.59Zm-24.68,0v-1.38h3.35v1.97h-3.35v-.59Zm36.38,17.02h-44.04v-9.15h44.04v9.15Zm.85-10.85h-45.87l1.61-5.32h5.32v.59c0,.47.38.85.85.85h5.05c.47,0,.85-.38.85-.85v-.59h17.93v.59c0,.47.38.85.85.85h5.05c.47,0,.85-.38.85-.85v-.59h6.02l1.61,5.32h-.13Z"/>
    </g>
    <path class="uuid-6bf86bae-7561-4d70-b718-37dfefa5adb5" d="m600.19,138.06c.16.2.4.32.66.32h8.52c.47,0,.85-.38.85-.85v-7.17h4.78v7.17c0,.47.38.85.85.85s.85-.38.85-.85v-7.17h4.78v7.17c0,.47.38.85.85.85h5.31c.47,0,.85-.38.85-.85v-7.17h4.78v7.17c0,.47.38.85.85.85s.85-.38.85-.85v-7.17h4.78v7.17c0,.47.38.85.85.85h8.52s0,0,0,0c.47,0,.85-.38.85-.85,0-.09-.01-.18-.04-.27-1.23-5.58-4.36-10.65-8.81-14.28-.66-.54-1.35-1.04-2.07-1.51v-4.62h.13s0,0,0,0c.47,0,.85-.38.85-.85,0-.08,0-.15-.03-.22l-.55-3.43c-.07-.41-.42-.72-.84-.72h-6.57c-.42,0-.77.3-.84.72l-.56,3.51c-.04.25.03.5.19.69.16.19.4.3.65.3h.13v1.27c-2.16-.58-4.39-.89-6.65-.89-2.44,0-4.86.36-7.18,1.04v-1.43h.13s0,0,0,0c.47,0,.85-.38.85-.85,0-.08,0-.15-.03-.22l-.55-3.43c-.07-.41-.42-.72-.84-.72h-6.57c-.42,0-.77.3-.84.72l-.56,3.51c-.04.25.03.5.19.69.16.19.4.3.65.3h.13v4.98c-.52.36-1.04.75-1.53,1.15-4.48,3.65-7.61,8.75-8.83,14.37-.05.25,0,.51.17.71Zm32.61-24.73h5.12l.29,1.81h-5.7l.29-1.81Zm4.57,3.51v3.58c-1.29-.72-2.64-1.32-4.03-1.8v-1.78h4.03Zm-25.83-3.51h5.12l.29,1.81h-5.7l.29-1.81Zm.54,7.4v-3.89h4.03v1.97c-.91.34-1.8.73-2.66,1.17-.01,0-.03.02-.05.02-.28.14-.55.29-.83.44-.07.04-.14.07-.2.11-.1.06-.2.11-.29.16Zm12.91-1.8c10.79,0,20.33,7.4,23.07,17.74h-6.59v-7.17c0-.47-.38-.85-.85-.85h-12.97c-.47,0-.85.38-.85.85v7.17h-3.61v-7.17c0-.47-.38-.85-.85-.85h-12.97c-.47,0-.85.38-.85.85v7.17h-6.59c2.74-10.34,12.28-17.74,23.07-17.74Z"/>
    <g>
      <rect class="uuid-6bf86bae-7561-4d70-b718-37dfefa5adb5" x="605.32" y="377.93" width="1.91" height="1.7"/>
      <rect class="uuid-6bf86bae-7561-4d70-b718-37dfefa5adb5" x="609.04" y="377.93" width="1.91" height="1.7"/>
      <rect class="uuid-6bf86bae-7561-4d70-b718-37dfefa5adb5" x="612.77" y="377.93" width="1.91" height="1.7"/>
      <rect class="uuid-6bf86bae-7561-4d70-b718-37dfefa5adb5" x="616.49" y="377.93" width="1.91" height="1.7"/>
      <rect class="uuid-6bf86bae-7561-4d70-b718-37dfefa5adb5" x="620.21" y="377.93" width="1.91" height="1.7"/>
      <rect class="uuid-6bf86bae-7561-4d70-b718-37dfefa5adb5" x="623.94" y="377.93" width="1.91" height="1.7"/>
      <rect class="uuid-6bf86bae-7561-4d70-b718-37dfefa5adb5" x="627.66" y="377.93" width="1.91" height="1.7"/>
      <rect class="uuid-6bf86bae-7561-4d70-b718-37dfefa5adb5" x="631.38" y="377.93" width="1.91" height="1.7"/>
      <rect class="uuid-6bf86bae-7561-4d70-b718-37dfefa5adb5" x="635.11" y="377.93" width="1.91" height="1.7"/>
      <rect class="uuid-6bf86bae-7561-4d70-b718-37dfefa5adb5" x="638.83" y="377.93" width="1.91" height="1.7"/>
      <rect class="uuid-6bf86bae-7561-4d70-b718-37dfefa5adb5" x="642.55" y="377.93" width="1.91" height="1.7"/>
      <path class="uuid-6bf86bae-7561-4d70-b718-37dfefa5adb5" d="m649.96,373.95l-2.13-7.02c-.11-.36-.44-.6-.81-.6h-6.65v-1.38c0-.47-.38-.85-.85-.85h-5.05c-.47,0-.85.38-.85.85v1.38h-17.93v-1.38c0-.47-.38-.85-.85-.85h-5.05c-.47,0-.85.38-.85.85v1.38h-5.96c-.37,0-.71.25-.81.6l-2.13,7.02c-.08.26-.03.54.13.75.16.22.41.34.68.34h.43v10c0,.47.38.85.85.85h45.74c.47,0,.85-.38.85-.85v-10h.43c.27,0,.52-.13.68-.34.16-.22.21-.5.13-.75Zm-14.64-6.77v-1.38h3.35v1.97h-3.35v-.59Zm-24.68,0v-1.38h3.35v1.97h-3.35v-.59Zm36.38,17.02h-44.04v-9.15h44.04v9.15Zm.85-10.85h-45.87l1.61-5.32h5.32v.59c0,.47.38.85.85.85h5.05c.47,0,.85-.38.85-.85v-.59h17.93v.59c0,.47.38.85.85.85h5.05c.47,0,.85-.38.85-.85v-.59h6.02l1.61,5.32h-.13Z"/>
    </g>
    <path class="uuid-6bf86bae-7561-4d70-b718-37dfefa5adb5" d="m645.78,640.59c-.15-.17-.37-.27-.6-.27h-1.34v-16.69h.9c.44,0,.8-.36.8-.8v-2.81h1.01c.44,0,.8-.36.8-.8v-2.81c0-.29-.16-.56-.41-.7l-21.62-12.07c-.24-.14-.54-.14-.79,0l-21.47,12.07c-.25.14-.41.41-.41.7v2.81c0,.44.36.8.8.8h1.01v2.81c0,.44.36.8.8.8h.9v16.69h-1.34c-.23,0-.45.1-.6.27l-4.02,4.56c-.21.24-.26.57-.13.86.13.29.42.47.73.47h48.39c.32,0,.6-.19.73-.47.13-.29.08-.63-.13-.86l-4.02-4.56Zm-3.55-.27h-2.61v-16.69h2.61v16.69Zm-4.99,0v-7.7c0-.44-.36-.8-.8-.8h-6.33c-.44,0-.8.36-.8.8v7.7h-5.13v-2.69h0c.44,0,.8-.36.8-.8v-4.19c0-.44-.36-.8-.8-.8h-3.02v-3.41c0-.44-.36-.8-.8-.8h-6.13c-.44,0-.8.36-.8.8v4.21c0,.37.26.69.6.78v2.61h0c-.44,0-.8.36-.8.8v3.49h-1.21v-16.69h26v16.69h-.77Zm-6.33-2.69h4.72v2.6h-4.72v-2.6Zm4.72-1.61h-4.72v-2.6h4.72v2.6Zm-16.08-4.19h-4.52v-2.6h4.52v2.6Zm-3.92,1.61h7.74v2.58h-7.74v-2.58Zm-.8,4.19h7.74v2.6h-7.74v-2.6Zm-10.56-20.77l20.67-11.62,20.82,11.62v1.54h-41.48v-1.54Zm1.81,3.15h37.86v2.01h-37.86v-2.01h0Zm1.71,3.62h2.61v16.69h-2.61v-16.69Zm-5.19,21.24l2.6-2.95h39.62l2.6,2.95h-44.83Z"/>
    <g>
      <path class="uuid-6bf86bae-7561-4d70-b718-37dfefa5adb5" d="m618.89,892.19h12.22c.46,0,.83-.37.83-.83v-2.99c0-.46-.37-.83-.83-.83h-12.22c-.46,0-.83.37-.83.83v2.99c0,.46.37.83.83.83Zm.83-2.99h10.56v1.32h-10.56v-1.32Z"/>
      <path class="uuid-6bf86bae-7561-4d70-b718-37dfefa5adb5" d="m649.17,872.26h-6.98v-6.6c0-.28-.15-.55-.39-.7l-16.35-10.42c-.27-.17-.62-.17-.9,0l-16.35,10.42c-.24.15-.39.42-.39.7v6.6h-6.98c-.46,0-.83.37-.83.83v21.67c0,.46.37.83.83.83h48.33c.46,0,.83-.37.83-.83v-21.67c0-.46-.37-.83-.83-.83Zm-39.69-6.14l15.52-9.89,15.52,9.89v6.11h-1.81v-3.64c0-1.48-1.21-2.69-2.69-2.69s-2.69,1.21-2.69,2.69v3.64h-1.96v-3.64c0-1.48-1.21-2.69-2.69-2.69s-2.69,1.21-2.69,2.69v3.64h-1.96v-3.64c0-1.48-1.21-2.69-2.69-2.69s-2.69,1.21-2.69,2.69v3.64h-1.96v-3.64c0-1.48-1.21-2.69-2.69-2.69s-2.69,1.21-2.69,2.69v3.64h-1.81v-6.11Zm27.56,2.47v3.67h-2.05v-3.67c0-.57.46-1.03,1.03-1.03s1.03.46,1.03,1.03Zm-7.34,0v3.67h-2.05v-3.67c0-.57.46-1.03,1.03-1.03s1.03.46,1.03,1.03Zm-7.35,0v3.67h-2.05v-3.67c0-.57.46-1.03,1.03-1.03s1.03.46,1.03,1.03Zm-7.34,0v3.67h-2.05v-3.67c0-.57.46-1.03,1.03-1.03s1.03.46,1.03,1.03Zm-13.34,8.67h9.37v1.32h-9.37v-1.32Zm0,5.97h9.37v1.32h-9.37v-1.32Zm0,5.97h9.37v1.32h-9.37v-1.32Zm46.67,1.32h-9.38v-1.32h9.38v1.32Zm0-5.97h-9.38v-1.32h9.38v1.32Zm0-5.97h-9.38v-1.32h9.38v1.32Zm0-2.99h-10.21c-.46,0-.83.37-.83.83v2.99c0,.46.37.83.83.83h10.21v1.32h-10.21c-.46,0-.83.37-.83.83v2.99c0,.46.37.83.83.83h10.21v1.32h-10.21c-.46,0-.83.37-.83.83v2.99c0,.46.37.83.83.83h10.21v1.74h-46.67v-1.74h10.21c.46,0,.83-.37.83-.83v-2.99c0-.46-.37-.83-.83-.83h-10.21v-1.32h10.21c.46,0,.83-.37.83-.83v-2.99c0-.46-.37-.83-.83-.83h-10.21v-1.32h10.21c.46,0,.83-.37.83-.83v-2.99c0-.46-.37-.83-.83-.83h-10.21v-1.67h46.67v1.67h0Z"/>
      <path class="uuid-6bf86bae-7561-4d70-b718-37dfefa5adb5" d="m618.89,880.25h12.22c.46,0,.83-.37.83-.83v-2.99c0-.46-.37-.83-.83-.83h-12.22c-.46,0-.83.37-.83.83v2.99c0,.46.37.83.83.83Zm.83-2.99h10.56v1.32h-10.56v-1.32Z"/>
      <path class="uuid-6bf86bae-7561-4d70-b718-37dfefa5adb5" d="m618.89,886.22h12.22c.46,0,.83-.37.83-.83v-2.99c0-.46-.37-.83-.83-.83h-12.22c-.46,0-.83.37-.83.83v2.99c0,.46.37.83.83.83Zm.83-2.99h10.56v1.32h-10.56v-1.32Z"/>
    </g>
    <g>
      <path class="uuid-6bf86bae-7561-4d70-b718-37dfefa5adb5" d="m868.89,142.19h12.22c.46,0,.83-.37.83-.83v-2.99c0-.46-.37-.83-.83-.83h-12.22c-.46,0-.83.37-.83.83v2.99c0,.46.37.83.83.83Zm.83-2.99h10.56v1.32h-10.56v-1.32Z"/>
      <path class="uuid-6bf86bae-7561-4d70-b718-37dfefa5adb5" d="m899.17,122.26h-6.98v-6.6c0-.28-.15-.55-.39-.7l-16.35-10.42c-.27-.17-.62-.17-.9,0l-16.35,10.42c-.24.15-.39.42-.39.7v6.6h-6.98c-.46,0-.83.37-.83.83v21.67c0,.46.37.83.83.83h48.33c.46,0,.83-.37.83-.83v-21.67c0-.46-.37-.83-.83-.83Zm-39.69-6.14l15.52-9.89,15.52,9.89v6.11h-1.81v-3.64c0-1.48-1.21-2.69-2.69-2.69s-2.69,1.21-2.69,2.69v3.64h-1.96v-3.64c0-1.48-1.21-2.69-2.69-2.69s-2.69,1.21-2.69,2.69v3.64h-1.96v-3.64c0-1.48-1.21-2.69-2.69-2.69s-2.69,1.21-2.69,2.69v3.64h-1.96v-3.64c0-1.48-1.21-2.69-2.69-2.69s-2.69,1.21-2.69,2.69v3.64h-1.81v-6.11Zm27.56,2.47v3.67h-2.05v-3.67c0-.57.46-1.03,1.03-1.03s1.03.46,1.03,1.03Zm-7.34,0v3.67h-2.05v-3.67c0-.57.46-1.03,1.03-1.03s1.03.46,1.03,1.03Zm-7.35,0v3.67h-2.05v-3.67c0-.57.46-1.03,1.03-1.03s1.03.46,1.03,1.03Zm-7.34,0v3.67h-2.05v-3.67c0-.57.46-1.03,1.03-1.03s1.03.46,1.03,1.03Zm-13.34,8.67h9.37v1.32h-9.37v-1.32Zm0,5.97h9.37v1.32h-9.37v-1.32Zm0,5.97h9.37v1.32h-9.37v-1.32Zm46.67,1.32h-9.38v-1.32h9.38v1.32Zm0-5.97h-9.38v-1.32h9.38v1.32Zm0-5.97h-9.38v-1.32h9.38v1.32Zm0-2.99h-10.21c-.46,0-.83.37-.83.83v2.99c0,.46.37.83.83.83h10.21v1.32h-10.21c-.46,0-.83.37-.83.83v2.99c0,.46.37.83.83.83h10.21v1.32h-10.21c-.46,0-.83.37-.83.83v2.99c0,.46.37.83.83.83h10.21v1.74h-46.67v-1.74h10.21c.46,0,.83-.37.83-.83v-2.99c0-.46-.37-.83-.83-.83h-10.21v-1.32h10.21c.46,0,.83-.37.83-.83v-2.99c0-.46-.37-.83-.83-.83h-10.21v-1.32h10.21c.46,0,.83-.37.83-.83v-2.99c0-.46-.37-.83-.83-.83h-10.21v-1.67h46.67v1.67h0Z"/>
      <path class="uuid-6bf86bae-7561-4d70-b718-37dfefa5adb5" d="m868.89,130.25h12.22c.46,0,.83-.37.83-.83v-2.99c0-.46-.37-.83-.83-.83h-12.22c-.46,0-.83.37-.83.83v2.99c0,.46.37.83.83.83Zm.83-2.99h10.56v1.32h-10.56v-1.32Z"/>
      <path class="uuid-6bf86bae-7561-4d70-b718-37dfefa5adb5" d="m868.89,136.22h12.22c.46,0,.83-.37.83-.83v-2.99c0-.46-.37-.83-.83-.83h-12.22c-.46,0-.83.37-.83.83v2.99c0,.46.37.83.83.83Zm.83-2.99h10.56v1.32h-10.56v-1.32Z"/>
    </g>
    <path class="uuid-6bf86bae-7561-4d70-b718-37dfefa5adb5" d="m850.19,388.06c.16.2.4.32.66.32h8.52c.47,0,.85-.38.85-.85v-7.17h4.78v7.17c0,.47.38.85.85.85s.85-.38.85-.85v-7.17h4.78v7.17c0,.47.38.85.85.85h5.31c.47,0,.85-.38.85-.85v-7.17h4.78v7.17c0,.47.38.85.85.85s.85-.38.85-.85v-7.17h4.78v7.17c0,.47.38.85.85.85h8.52s0,0,0,0c.47,0,.85-.38.85-.85,0-.09-.01-.18-.04-.27-1.23-5.58-4.36-10.65-8.81-14.28-.66-.54-1.35-1.04-2.07-1.51v-4.62h.13s0,0,0,0c.47,0,.85-.38.85-.85,0-.08,0-.15-.03-.22l-.55-3.43c-.07-.41-.42-.72-.84-.72h-6.57c-.42,0-.77.3-.84.72l-.56,3.51c-.04.25.03.5.19.69.16.19.4.3.65.3h.13v1.27c-2.16-.58-4.39-.89-6.65-.89-2.44,0-4.86.36-7.18,1.04v-1.43h.13s0,0,0,0c.47,0,.85-.38.85-.85,0-.08,0-.15-.03-.22l-.55-3.43c-.07-.41-.42-.72-.84-.72h-6.57c-.42,0-.77.3-.84.72l-.56,3.51c-.04.25.03.5.19.69.16.19.4.3.65.3h.13v4.98c-.52.36-1.04.75-1.53,1.15-4.48,3.65-7.61,8.75-8.83,14.37-.05.25,0,.51.17.71Zm32.61-24.73h5.12l.29,1.81h-5.7l.29-1.81Zm4.57,3.51v3.58c-1.29-.72-2.64-1.32-4.03-1.8v-1.78h4.03Zm-25.83-3.51h5.12l.29,1.81h-5.7l.29-1.81Zm.54,7.4v-3.89h4.03v1.97c-.91.34-1.8.73-2.66,1.17-.01,0-.03.02-.05.02-.28.14-.55.29-.83.44-.07.04-.14.07-.2.11-.1.06-.2.11-.29.16Zm12.91-1.8c10.79,0,20.33,7.4,23.07,17.74h-6.59v-7.17c0-.47-.38-.85-.85-.85h-12.97c-.47,0-.85.38-.85.85v7.17h-3.61v-7.17c0-.47-.38-.85-.85-.85h-12.97c-.47,0-.85.38-.85.85v7.17h-6.59c2.74-10.34,12.28-17.74,23.07-17.74Z"/>
    <g>
      <path class="uuid-6bf86bae-7561-4d70-b718-37dfefa5adb5" d="m868.89,642.19h12.22c.46,0,.83-.37.83-.83v-2.99c0-.46-.37-.83-.83-.83h-12.22c-.46,0-.83.37-.83.83v2.99c0,.46.37.83.83.83Zm.83-2.99h10.56v1.32h-10.56v-1.32Z"/>
      <path class="uuid-6bf86bae-7561-4d70-b718-37dfefa5adb5" d="m899.17,622.26h-6.98v-6.6c0-.28-.15-.55-.39-.7l-16.35-10.42c-.27-.17-.62-.17-.9,0l-16.35,10.42c-.24.15-.39.42-.39.7v6.6h-6.98c-.46,0-.83.37-.83.83v21.67c0,.46.37.83.83.83h48.33c.46,0,.83-.37.83-.83v-21.67c0-.46-.37-.83-.83-.83Zm-39.69-6.14l15.52-9.89,15.52,9.89v6.11h-1.81v-3.64c0-1.48-1.21-2.69-2.69-2.69s-2.69,1.21-2.69,2.69v3.64h-1.96v-3.64c0-1.48-1.21-2.69-2.69-2.69s-2.69,1.21-2.69,2.69v3.64h-1.96v-3.64c0-1.48-1.21-2.69-2.69-2.69s-2.69,1.21-2.69,2.69v3.64h-1.96v-3.64c0-1.48-1.21-2.69-2.69-2.69s-2.69,1.21-2.69,2.69v3.64h-1.81v-6.11Zm27.56,2.47v3.67h-2.05v-3.67c0-.57.46-1.03,1.03-1.03s1.03.46,1.03,1.03Zm-7.34,0v3.67h-2.05v-3.67c0-.57.46-1.03,1.03-1.03s1.03.46,1.03,1.03Zm-7.35,0v3.67h-2.05v-3.67c0-.57.46-1.03,1.03-1.03s1.03.46,1.03,1.03Zm-7.34,0v3.67h-2.05v-3.67c0-.57.46-1.03,1.03-1.03s1.03.46,1.03,1.03Zm-13.34,8.67h9.37v1.32h-9.37v-1.32Zm0,5.97h9.37v1.32h-9.37v-1.32Zm0,5.97h9.37v1.32h-9.37v-1.32Zm46.67,1.32h-9.38v-1.32h9.38v1.32Zm0-5.97h-9.38v-1.32h9.38v1.32Zm0-5.97h-9.38v-1.32h9.38v1.32Zm0-2.99h-10.21c-.46,0-.83.37-.83.83v2.99c0,.46.37.83.83.83h10.21v1.32h-10.21c-.46,0-.83.37-.83.83v2.99c0,.46.37.83.83.83h10.21v1.32h-10.21c-.46,0-.83.37-.83.83v2.99c0,.46.37.83.83.83h10.21v1.74h-46.67v-1.74h10.21c.46,0,.83-.37.83-.83v-2.99c0-.46-.37-.83-.83-.83h-10.21v-1.32h10.21c.46,0,.83-.37.83-.83v-2.99c0-.46-.37-.83-.83-.83h-10.21v-1.32h10.21c.46,0,.83-.37.83-.83v-2.99c0-.46-.37-.83-.83-.83h-10.21v-1.67h46.67v1.67h0Z"/>
      <path class="uuid-6bf86bae-7561-4d70-b718-37dfefa5adb5" d="m868.89,630.25h12.22c.46,0,.83-.37.83-.83v-2.99c0-.46-.37-.83-.83-.83h-12.22c-.46,0-.83.37-.83.83v2.99c0,.46.37.83.83.83Zm.83-2.99h10.56v1.32h-10.56v-1.32Z"/>
      <path class="uuid-6bf86bae-7561-4d70-b718-37dfefa5adb5" d="m868.89,636.22h12.22c.46,0,.83-.37.83-.83v-2.99c0-.46-.37-.83-.83-.83h-12.22c-.46,0-.83.37-.83.83v2.99c0,.46.37.83.83.83Zm.83-2.99h10.56v1.32h-10.56v-1.32Z"/>
    </g>
    <path class="uuid-6bf86bae-7561-4d70-b718-37dfefa5adb5" d="m884.6,850h-19.19c-.51,0-.92.41-.92.92v22.11h-4.01c-1.23,0-2.32.82-2.65,2l-6.11,21.45c-.24.83-.07,1.73.45,2.42.52.69,1.34,1.1,2.2,1.1h41.27s.01,0,.02,0c0,0,.01,0,.02,0,1.51,0,2.74-1.24,2.74-2.76,0-.31-.05-.62-.15-.91l-6.07-21.3c-.34-1.18-1.43-2-2.65-2h-4.01v-22.11c0-.51-.41-.92-.92-.92Zm-18.27,1.84h17.36v3.45h-11.23c-.51,0-.92.41-.92.92v3.68c0,.51.41.92.92.92h11.23v1.15h-11.23c-.51,0-.92.41-.92.92v3.68c0,.51.41.92.92.92h11.23v1.15h-11.23c-.51,0-.92.41-.92.92v3.68c0,.51.41.92.92.92h11.23v1.15h-11.23c-.51,0-.92.41-.92.92v3.68c0,.51.41.92.92.92h11.23v11.19h-17.36v-40.15Zm17.28,5.29v1.84h-10.23v-1.84h10.23Zm0,6.67v1.84h-10.23v-1.84h10.23Zm0,6.67v1.84h-10.23v-1.84h10.23Zm0,6.67v1.84h-10.23v-1.84h10.23Zm5.92-2.26c.41,0,.77.27.88.67l6.08,21.33s.01.04.02.06c.04.1.06.21.06.32,0,.51-.41.92-.92.92h-41.28c-.29,0-.56-.14-.73-.37-.17-.23-.23-.53-.15-.81l6.11-21.45c.11-.39.48-.67.88-.67h4.01v18.04c0,.51.41.92.92.92h19.19c.51,0,.92-.41.92-.92v-18.04h4.01Z"/>
    <path class="uuid-6bf86bae-7561-4d70-b718-37dfefa5adb5" d="m950.38,26.11c.32.4.81.63,1.32.63h17.04c.94,0,1.7-.76,1.7-1.7v-14.34h9.57v14.34c0,.94.76,1.7,1.7,1.7s1.7-.76,1.7-1.7v-14.34h9.57v14.34c0,.94.76,1.7,1.7,1.7h10.63c.94,0,1.7-.76,1.7-1.7v-14.34h9.57v14.34c0,.94.76,1.7,1.7,1.7s1.7-.76,1.7-1.7v-14.34h9.57v14.34c0,.94.76,1.7,1.7,1.7h17.04s0,0,0,0c.94,0,1.7-.76,1.7-1.7,0-.19-.03-.36-.08-.53-2.47-11.16-8.72-21.3-17.63-28.57-1.33-1.08-2.71-2.08-4.13-3.02v-9.24h.26s0,0,0,0c.94,0,1.7-.76,1.7-1.7,0-.15-.02-.3-.06-.44l-1.09-6.86c-.13-.83-.84-1.43-1.68-1.43h-13.14c-.84,0-1.55.61-1.68,1.43l-1.12,7.03c-.08.49.06.99.39,1.37s.8.6,1.29.6h.26v2.55c-4.31-1.16-8.78-1.77-13.3-1.77-4.88,0-9.72.72-14.36,2.07v-2.85h.26s0,0,0,0c.94,0,1.7-.76,1.7-1.7,0-.15-.02-.3-.06-.44l-1.09-6.86c-.13-.83-.84-1.43-1.68-1.43h-13.14c-.84,0-1.55.61-1.68,1.43l-1.12,7.03c-.08.49.06.99.39,1.37.32.38.8.6,1.29.6h.26V-6.36c-1.05.73-2.07,1.49-3.07,2.3-8.95,7.3-15.23,17.51-17.67,28.74-.11.5.01,1.03.34,1.43Zm65.23-49.46h10.24l.58,3.62h-11.39l.58-3.62Zm9.15,7.03v7.17c-2.58-1.43-5.28-2.64-8.06-3.6v-3.57h8.06Zm-51.67-7.03h10.24l.58,3.62h-11.39l.58-3.62Zm1.09,14.8v-7.77h8.06v3.95c-1.82.67-3.6,1.46-5.33,2.34-.03.02-.06.03-.09.05-.56.28-1.11.58-1.65.88-.14.08-.27.15-.41.23-.19.11-.39.21-.59.33Zm25.82-3.59c21.58,0,40.65,14.8,46.14,35.48h-13.18v-14.34c0-.94-.76-1.7-1.7-1.7h-25.94c-.94,0-1.7.76-1.7,1.7v14.34h-7.23v-14.34c0-.94-.76-1.7-1.7-1.7h-25.94c-.94,0-1.7.76-1.7,1.7v14.34h-13.18c5.48-20.68,24.55-35.48,46.14-35.48Z"/>
    <g>
      <rect class="uuid-6bf86bae-7561-4d70-b718-37dfefa5adb5" x="460.64" y="5.85" width="3.83" height="3.4"/>
      <rect class="uuid-6bf86bae-7561-4d70-b718-37dfefa5adb5" x="468.09" y="5.85" width="3.83" height="3.4"/>
      <rect class="uuid-6bf86bae-7561-4d70-b718-37dfefa5adb5" x="475.53" y="5.85" width="3.83" height="3.4"/>
      <rect class="uuid-6bf86bae-7561-4d70-b718-37dfefa5adb5" x="482.98" y="5.85" width="3.83" height="3.4"/>
      <rect class="uuid-6bf86bae-7561-4d70-b718-37dfefa5adb5" x="490.43" y="5.85" width="3.83" height="3.4"/>
      <rect class="uuid-6bf86bae-7561-4d70-b718-37dfefa5adb5" x="497.87" y="5.85" width="3.83" height="3.4"/>
      <rect class="uuid-6bf86bae-7561-4d70-b718-37dfefa5adb5" x="505.32" y="5.85" width="3.83" height="3.4"/>
      <rect class="uuid-6bf86bae-7561-4d70-b718-37dfefa5adb5" x="512.77" y="5.85" width="3.83" height="3.4"/>
      <rect class="uuid-6bf86bae-7561-4d70-b718-37dfefa5adb5" x="520.21" y="5.85" width="3.83" height="3.4"/>
      <rect class="uuid-6bf86bae-7561-4d70-b718-37dfefa5adb5" x="527.66" y="5.85" width="3.83" height="3.4"/>
      <rect class="uuid-6bf86bae-7561-4d70-b718-37dfefa5adb5" x="535.11" y="5.85" width="3.83" height="3.4"/>
      <path class="uuid-6bf86bae-7561-4d70-b718-37dfefa5adb5" d="m549.93-2.09l-4.26-14.04c-.22-.72-.88-1.21-1.63-1.21h-13.3v-2.76c0-.94-.76-1.7-1.7-1.7h-10.11c-.94,0-1.7.76-1.7,1.7v2.76h-35.85v-2.76c0-.94-.76-1.7-1.7-1.7h-10.11c-.94,0-1.7.76-1.7,1.7v2.76h-11.91c-.75,0-1.41.49-1.63,1.21l-4.26,14.04c-.16.52-.06,1.07.26,1.51.32.43.83.69,1.37.69h.85v20c0,.94.76,1.7,1.7,1.7h91.49c.94,0,1.7-.76,1.7-1.7V.1h.85c.54,0,1.05-.26,1.37-.69.32-.43.42-.99.26-1.51Zm-29.29-13.55v-2.76h6.7v3.94h-6.7v-1.18Zm-49.36,0v-2.76h6.7v3.94h-6.7v-1.18Zm72.77,34.04h-88.09V.1h88.09v18.3Zm1.7-21.7h-91.75l3.23-10.64h10.65v1.18c0,.94.76,1.7,1.7,1.7h10.11c.94,0,1.7-.76,1.7-1.7v-1.18h35.85v1.18c0,.94.76,1.7,1.7,1.7h10.11c.94,0,1.7-.76,1.7-1.7v-1.18h12.03l3.23,10.64h-.26Z"/>
    </g>
    <g>
      <path class="uuid-6bf86bae-7561-4d70-b718-37dfefa5adb5" d="m237.78,34.38h24.44c.92,0,1.67-.75,1.67-1.67v-5.97c0-.92-.75-1.67-1.67-1.67h-24.44c-.92,0-1.67.75-1.67,1.67v5.97c0,.92.75,1.67,1.67,1.67Zm1.67-5.97h21.11v2.64h-21.11v-2.64Z"/>
      <path class="uuid-6bf86bae-7561-4d70-b718-37dfefa5adb5" d="m298.33-5.48h-13.96v-13.19c0-.57-.29-1.1-.77-1.41l-32.71-20.85c-.55-.35-1.25-.35-1.79,0l-32.71,20.85c-.48.31-.77.84-.77,1.41V-5.48h-13.96c-.92,0-1.67.75-1.67,1.67v43.33c0,.92.75,1.67,1.67,1.67h96.67c.92,0,1.67-.75,1.67-1.67V-3.81c0-.92-.75-1.67-1.67-1.67Zm-79.37-12.28l31.04-19.78,31.04,19.78V-5.55h-3.62v-7.27c0-2.97-2.42-5.39-5.39-5.39s-5.39,2.42-5.39,5.39v7.27h-3.92v-7.27c0-2.97-2.42-5.39-5.39-5.39s-5.39,2.42-5.39,5.39v7.27h-3.92v-7.27c0-2.97-2.42-5.39-5.39-5.39s-5.39,2.42-5.39,5.39v7.27h-3.92v-7.27c0-2.97-2.42-5.39-5.39-5.39s-5.39,2.42-5.39,5.39v7.27h-3.62v-12.21Zm55.13,4.94v7.34h-4.1v-7.34c0-1.13.92-2.05,2.05-2.05s2.05.92,2.05,2.05Zm-14.69,0v7.34h-4.1v-7.34c0-1.13.92-2.05,2.05-2.05s2.05.92,2.05,2.05Zm-14.69,0v7.34h-4.1v-7.34c0-1.13.92-2.05,2.05-2.05s2.05.92,2.05,2.05Zm-14.69,0v7.34h-4.1v-7.34c0-1.13.92-2.05,2.05-2.05s2.05.92,2.05,2.05Zm-26.68,17.34h18.75v2.64h-18.75v-2.64Zm0,11.94h18.75v2.64h-18.75v-2.64Zm0,11.94h18.75v2.64h-18.75v-2.64Zm93.33,2.64h-18.75v-2.64h18.75v2.64Zm0-11.94h-18.75v-2.64h18.75v2.64Zm0-11.94h-18.75v-2.64h18.75v2.64Zm0-5.97h-20.42c-.92,0-1.67.75-1.67,1.67v5.97c0,.92.75,1.67,1.67,1.67h20.42v2.64h-20.42c-.92,0-1.67.75-1.67,1.67v5.97c0,.92.75,1.67,1.67,1.67h20.42v2.64h-20.42c-.92,0-1.67.75-1.67,1.67v5.97c0,.92.75,1.67,1.67,1.67h20.42v3.47h-93.33v-3.47h20.42c.92,0,1.67-.75,1.67-1.67v-5.97c0-.92-.75-1.67-1.67-1.67h-20.42v-2.64h20.42c.92,0,1.67-.75,1.67-1.67v-5.97c0-.92-.75-1.67-1.67-1.67h-20.42v-2.64h20.42c.92,0,1.67-.75,1.67-1.67V2.85c0-.92-.75-1.67-1.67-1.67h-20.42v-3.33h93.33V1.19h0Z"/>
      <path class="uuid-6bf86bae-7561-4d70-b718-37dfefa5adb5" d="m237.78,10.49h24.44c.92,0,1.67-.75,1.67-1.67V2.85c0-.92-.75-1.67-1.67-1.67h-24.44c-.92,0-1.67.75-1.67,1.67v5.97c0,.92.75,1.67,1.67,1.67Zm1.67-5.97h21.11v2.64h-21.11v-2.64Z"/>
      <path class="uuid-6bf86bae-7561-4d70-b718-37dfefa5adb5" d="m237.78,22.44h24.44c.92,0,1.67-.75,1.67-1.67v-5.97c0-.92-.75-1.67-1.67-1.67h-24.44c-.92,0-1.67.75-1.67,1.67v5.97c0,.92.75,1.67,1.67,1.67Zm1.67-5.97h21.11v2.64h-21.11v-2.64Z"/>
    </g>
    <path class="uuid-6bf86bae-7561-4d70-b718-37dfefa5adb5" d="m700.47,22.97c.35.38.84.6,1.36.6h96.34c.52,0,1.01-.22,1.36-.6.35-.38.52-.9.46-1.41-1.24-12.32-7-23.71-16.2-32.08-9.26-8.42-21.26-13.06-33.79-13.06s-24.53,4.64-33.79,13.06c-9.2,8.37-14.95,19.76-16.2,32.08-.05.52.12,1.03.46,1.41Zm62.96-3.06h-11.6V-9.63h11.6v29.54Zm-15.27,0h-11.6V-9.63h11.6v29.54Zm1.83-39.83c23.33,0,42.8,16.98,46.1,39.83h-29V-11.46c0-1.01-.82-1.83-1.83-1.83h-30.53c-1.01,0-1.83.82-1.83,1.83v31.38h-29c3.3-22.84,22.77-39.83,46.1-39.83Z"/>
    <path class="uuid-6bf86bae-7561-4d70-b718-37dfefa5adb5" d="m450.38,276.11c.32.4.81.63,1.32.63h17.04c.94,0,1.7-.76,1.7-1.7v-14.34h9.57v14.34c0,.94.76,1.7,1.7,1.7s1.7-.76,1.7-1.7v-14.34h9.57v14.34c0,.94.76,1.7,1.7,1.7h10.63c.94,0,1.7-.76,1.7-1.7v-14.34h9.57v14.34c0,.94.76,1.7,1.7,1.7s1.7-.76,1.7-1.7v-14.34h9.57v14.34c0,.94.76,1.7,1.7,1.7h17.04s0,0,0,0c.94,0,1.7-.76,1.7-1.7,0-.19-.03-.36-.08-.53-2.47-11.16-8.72-21.3-17.63-28.57-1.33-1.08-2.71-2.08-4.13-3.02v-9.24h.26s0,0,0,0c.94,0,1.7-.76,1.7-1.7,0-.15-.02-.3-.06-.44l-1.09-6.86c-.13-.83-.84-1.43-1.68-1.43h-13.14c-.84,0-1.55.61-1.68,1.43l-1.12,7.03c-.08.49.06.99.39,1.37.32.38.8.6,1.29.6h.26v2.55c-4.31-1.16-8.78-1.77-13.3-1.77-4.88,0-9.72.72-14.36,2.07v-2.85h.26s0,0,0,0c.94,0,1.7-.76,1.7-1.7,0-.15-.02-.3-.06-.44l-1.09-6.86c-.13-.83-.84-1.43-1.68-1.43h-13.14c-.84,0-1.55.61-1.68,1.43l-1.12,7.03c-.08.49.06.99.39,1.37.32.38.8.6,1.29.6h.26v9.96c-1.05.73-2.07,1.49-3.07,2.3-8.95,7.3-15.23,17.51-17.67,28.74-.11.5.01,1.03.34,1.43Zm65.23-49.46h10.24l.58,3.62h-11.39l.58-3.62Zm9.15,7.03v7.17c-2.58-1.43-5.28-2.64-8.06-3.6v-3.57h8.06Zm-51.67-7.03h10.24l.58,3.62h-11.39l.58-3.62Zm1.09,14.8v-7.77h8.06v3.95c-1.82.67-3.6,1.46-5.33,2.34-.03.02-.06.03-.09.05-.56.28-1.11.58-1.65.88-.14.08-.27.15-.41.23-.19.11-.39.21-.59.33Zm25.82-3.59c21.58,0,40.65,14.8,46.14,35.48h-13.18v-14.34c0-.94-.76-1.7-1.7-1.7h-25.94c-.94,0-1.7.76-1.7,1.7v14.34h-7.23v-14.34c0-.94-.76-1.7-1.7-1.7h-25.94c-.94,0-1.7.76-1.7,1.7v14.34h-13.18c5.48-20.68,24.55-35.48,46.14-35.48Z"/>
    <g>
      <rect class="uuid-6bf86bae-7561-4d70-b718-37dfefa5adb5" x="210.64" y="255.85" width="3.83" height="3.4"/>
      <rect class="uuid-6bf86bae-7561-4d70-b718-37dfefa5adb5" x="218.09" y="255.85" width="3.83" height="3.4"/>
      <rect class="uuid-6bf86bae-7561-4d70-b718-37dfefa5adb5" x="225.53" y="255.85" width="3.83" height="3.4"/>
      <rect class="uuid-6bf86bae-7561-4d70-b718-37dfefa5adb5" x="232.98" y="255.85" width="3.83" height="3.4"/>
      <rect class="uuid-6bf86bae-7561-4d70-b718-37dfefa5adb5" x="240.43" y="255.85" width="3.83" height="3.4"/>
      <rect class="uuid-6bf86bae-7561-4d70-b718-37dfefa5adb5" x="247.87" y="255.85" width="3.83" height="3.4"/>
      <rect class="uuid-6bf86bae-7561-4d70-b718-37dfefa5adb5" x="255.32" y="255.85" width="3.83" height="3.4"/>
      <rect class="uuid-6bf86bae-7561-4d70-b718-37dfefa5adb5" x="262.77" y="255.85" width="3.83" height="3.4"/>
      <rect class="uuid-6bf86bae-7561-4d70-b718-37dfefa5adb5" x="270.21" y="255.85" width="3.83" height="3.4"/>
      <rect class="uuid-6bf86bae-7561-4d70-b718-37dfefa5adb5" x="277.66" y="255.85" width="3.83" height="3.4"/>
      <rect class="uuid-6bf86bae-7561-4d70-b718-37dfefa5adb5" x="285.11" y="255.85" width="3.83" height="3.4"/>
      <path class="uuid-6bf86bae-7561-4d70-b718-37dfefa5adb5" d="m299.93,247.91l-4.26-14.04c-.22-.72-.88-1.21-1.63-1.21h-13.3v-2.76c0-.94-.76-1.7-1.7-1.7h-10.11c-.94,0-1.7.76-1.7,1.7v2.76h-35.85v-2.76c0-.94-.76-1.7-1.7-1.7h-10.11c-.94,0-1.7.76-1.7,1.7v2.76h-11.91c-.75,0-1.41.49-1.63,1.21l-4.26,14.04c-.16.52-.06,1.07.26,1.51.32.43.83.69,1.37.69h.85v20c0,.94.76,1.7,1.7,1.7h91.49c.94,0,1.7-.76,1.7-1.7v-20h.85c.54,0,1.05-.26,1.37-.69.32-.43.42-.99.26-1.51Zm-29.29-13.55v-2.76h6.7v3.94h-6.7v-1.18Zm-49.36,0v-2.76h6.7v3.94h-6.7v-1.18Zm72.77,34.04h-88.09v-18.3h88.09v18.3Zm1.7-21.7h-91.75l3.23-10.64h10.65v1.18c0,.94.76,1.7,1.7,1.7h10.11c.94,0,1.7-.76,1.7-1.7v-1.18h35.85v1.18c0,.94.76,1.7,1.7,1.7h10.11c.94,0,1.7-.76,1.7-1.7v-1.18h12.03l3.23,10.64h-.26Z"/>
    </g>
    <g>
      <path class="uuid-6bf86bae-7561-4d70-b718-37dfefa5adb5" d="m737.78,284.38h24.44c.92,0,1.67-.75,1.67-1.67v-5.97c0-.92-.75-1.67-1.67-1.67h-24.44c-.92,0-1.67.75-1.67,1.67v5.97c0,.92.75,1.67,1.67,1.67Zm1.67-5.97h21.11v2.64h-21.11v-2.64Z"/>
      <path class="uuid-6bf86bae-7561-4d70-b718-37dfefa5adb5" d="m798.33,244.52h-13.96v-13.19c0-.57-.29-1.1-.77-1.41l-32.71-20.85c-.55-.35-1.25-.35-1.79,0l-32.71,20.85c-.48.31-.77.84-.77,1.41v13.19h-13.96c-.92,0-1.67.75-1.67,1.67v43.33c0,.92.75,1.67,1.67,1.67h96.67c.92,0,1.67-.75,1.67-1.67v-43.33c0-.92-.75-1.67-1.67-1.67Zm-79.37-12.28l31.04-19.78,31.04,19.78v12.21h-3.62v-7.27c0-2.97-2.42-5.39-5.39-5.39s-5.39,2.42-5.39,5.39v7.27h-3.92v-7.27c0-2.97-2.42-5.39-5.39-5.39s-5.39,2.42-5.39,5.39v7.27h-3.92v-7.27c0-2.97-2.42-5.39-5.39-5.39s-5.39,2.42-5.39,5.39v7.27h-3.92v-7.27c0-2.97-2.42-5.39-5.39-5.39s-5.39,2.42-5.39,5.39v7.27h-3.62v-12.21Zm55.13,4.94v7.34h-4.1v-7.34c0-1.13.92-2.05,2.05-2.05s2.05.92,2.05,2.05Zm-14.69,0v7.34h-4.1v-7.34c0-1.13.92-2.05,2.05-2.05s2.05.92,2.05,2.05Zm-14.69,0v7.34h-4.1v-7.34c0-1.13.92-2.05,2.05-2.05s2.05.92,2.05,2.05Zm-14.69,0v7.34h-4.1v-7.34c0-1.13.92-2.05,2.05-2.05s2.05.92,2.05,2.05Zm-26.68,17.34h18.75v2.64h-18.75v-2.64Zm0,11.94h18.75v2.64h-18.75v-2.64Zm0,11.94h18.75v2.64h-18.75v-2.64Zm93.33,2.64h-18.75v-2.64h18.75v2.64Zm0-11.94h-18.75v-2.64h18.75v2.64Zm0-11.94h-18.75v-2.64h18.75v2.64Zm0-5.97h-20.42c-.92,0-1.67.75-1.67,1.67v5.97c0,.92.75,1.67,1.67,1.67h20.42v2.64h-20.42c-.92,0-1.67.75-1.67,1.67v5.97c0,.92.75,1.67,1.67,1.67h20.42v2.64h-20.42c-.92,0-1.67.75-1.67,1.67v5.97c0,.92.75,1.67,1.67,1.67h20.42v3.47h-93.33v-3.47h20.42c.92,0,1.67-.75,1.67-1.67v-5.97c0-.92-.75-1.67-1.67-1.67h-20.42v-2.64h20.42c.92,0,1.67-.75,1.67-1.67v-5.97c0-.92-.75-1.67-1.67-1.67h-20.42v-2.64h20.42c.92,0,1.67-.75,1.67-1.67v-5.97c0-.92-.75-1.67-1.67-1.67h-20.42v-3.33h93.33v3.33h0Z"/>
      <path class="uuid-6bf86bae-7561-4d70-b718-37dfefa5adb5" d="m737.78,260.49h24.44c.92,0,1.67-.75,1.67-1.67v-5.97c0-.92-.75-1.67-1.67-1.67h-24.44c-.92,0-1.67.75-1.67,1.67v5.97c0,.92.75,1.67,1.67,1.67Zm1.67-5.97h21.11v2.64h-21.11v-2.64Z"/>
      <path class="uuid-6bf86bae-7561-4d70-b718-37dfefa5adb5" d="m737.78,272.44h24.44c.92,0,1.67-.75,1.67-1.67v-5.97c0-.92-.75-1.67-1.67-1.67h-24.44c-.92,0-1.67.75-1.67,1.67v5.97c0,.92.75,1.67,1.67,1.67Zm1.67-5.97h21.11v2.64h-21.11v-2.64Z"/>
    </g>
    <path class="uuid-6bf86bae-7561-4d70-b718-37dfefa5adb5" d="m519.19,450h-38.39c-1.02,0-1.84.82-1.84,1.84v44.22h-8.02c-2.45,0-4.63,1.65-5.31,4.01l-12.23,42.91c-.47,1.65-.13,3.46.9,4.84,1.04,1.37,2.68,2.19,4.4,2.19h82.53s.02,0,.03,0c.01,0,.02,0,.03,0,3.03-.02,5.49-2.48,5.49-5.52,0-.63-.1-1.24-.31-1.83l-12.14-42.59c-.67-2.36-2.85-4.01-5.31-4.01h-8.01v-44.22c0-1.02-.82-1.84-1.84-1.84Zm-36.55,3.68h34.71v6.9h-22.45c-1.02,0-1.84.82-1.84,1.84v7.36c0,1.02.82,1.84,1.84,1.84h22.45v2.3h-22.45c-1.02,0-1.84.82-1.84,1.84v7.36c0,1.02.82,1.84,1.84,1.84h22.45v2.3h-22.45c-1.02,0-1.84.82-1.84,1.84v7.36c0,1.02.82,1.84,1.84,1.84h22.45v2.3h-22.45c-1.02,0-1.84.82-1.84,1.84v7.36c0,1.02.82,1.84,1.84,1.84h22.45v22.37h-34.71v-80.3Zm34.56,10.57v3.68h-20.46v-3.68h20.46Zm0,13.33v3.68h-20.46v-3.68h20.46Zm0,13.33v3.68h-20.46v-3.68h20.46Zm0,13.33v3.68h-20.46v-3.68h20.46Zm11.84-4.52c.82,0,1.54.55,1.77,1.33l12.16,42.65s.03.09.04.13c.07.2.11.41.11.63,0,1.01-.82,1.84-1.84,1.84h-82.57c-.57,0-1.12-.27-1.47-.73-.35-.46-.46-1.06-.3-1.61l12.23-42.91c.22-.79.95-1.34,1.77-1.34h8.02v36.08c0,1.02.82,1.84,1.84,1.84h38.39c1.02,0,1.84-.82,1.84-1.84v-36.08h8.01Z"/>
    <path class="uuid-6bf86bae-7561-4d70-b718-37dfefa5adb5" d="m291.55,531.18c-.31-.35-.74-.54-1.21-.54h-2.68v-33.37h1.81c.89,0,1.61-.72,1.61-1.61v-5.63h2.01c.89,0,1.61-.72,1.61-1.61v-5.63c0-.58-.32-1.12-.82-1.4l-43.25-24.14c-.49-.27-1.08-.27-1.57,0l-42.94,24.14c-.51.28-.82.82-.82,1.4v5.63c0,.89.72,1.61,1.61,1.61h2.01v5.63c0,.89.72,1.61,1.61,1.61h1.81v33.37h-2.68c-.46,0-.9.2-1.21.54l-8.05,9.11c-.42.47-.52,1.15-.26,1.73.26.58.83.95,1.47.95h96.78c.63,0,1.21-.37,1.47-.95.26-.58.16-1.25-.26-1.73l-8.05-9.11Zm-7.1-.54h-5.23v-33.37h5.23v33.37Zm-9.97,0v-15.41c0-.89-.72-1.61-1.61-1.61h-12.67c-.89,0-1.61.72-1.61,1.61v15.41h-10.25v-5.37h0c.89,0,1.61-.72,1.61-1.61v-8.38c0-.89-.72-1.61-1.61-1.61h-6.03v-6.82c0-.89-.72-1.61-1.61-1.61h-12.26c-.89,0-1.61.72-1.61,1.61v8.43c0,.75.51,1.37,1.21,1.55v5.22h0c-.89,0-1.61.72-1.61,1.61v6.98h-2.42v-33.37h52.01v33.37h-1.53Zm-12.67-5.37h9.45v5.21h-9.45v-5.21Zm9.45-3.22h-9.45v-5.21h9.45v5.21Zm-32.17-8.38h-9.05v-5.21h9.05v5.21Zm-7.84,3.22h15.48v5.16h-15.48v-5.16Zm-1.61,8.38h15.48v5.21h-15.48v-5.21Zm-21.12-41.54l41.33-23.24,41.64,23.24v3.08h-82.97v-3.08Zm3.62,6.3h75.73v4.02h-75.73v-4.02h0Zm3.42,7.24h5.23v33.37h-5.23v-33.37Zm-10.38,42.49l5.21-5.9h79.24l5.21,5.9h-89.65Z"/>
    <path class="uuid-6bf86bae-7561-4d70-b718-37dfefa5adb5" d="m791.55,531.18c-.31-.35-.74-.54-1.21-.54h-2.68v-33.37h1.81c.89,0,1.61-.72,1.61-1.61v-5.63h2.01c.89,0,1.61-.72,1.61-1.61v-5.63c0-.58-.32-1.12-.82-1.4l-43.25-24.14c-.49-.27-1.08-.27-1.57,0l-42.94,24.14c-.51.28-.82.82-.82,1.4v5.63c0,.89.72,1.61,1.61,1.61h2.01v5.63c0,.89.72,1.61,1.61,1.61h1.81v33.37h-2.68c-.46,0-.9.2-1.21.54l-8.05,9.11c-.42.47-.52,1.15-.26,1.73.26.58.83.95,1.47.95h96.78c.63,0,1.21-.37,1.47-.95.26-.58.16-1.25-.26-1.73l-8.05-9.11Zm-7.1-.54h-5.23v-33.37h5.23v33.37Zm-9.97,0v-15.41c0-.89-.72-1.61-1.61-1.61h-12.67c-.89,0-1.61.72-1.61,1.61v15.41h-10.25v-5.37h0c.89,0,1.61-.72,1.61-1.61v-8.38c0-.89-.72-1.61-1.61-1.61h-6.03v-6.82c0-.89-.72-1.61-1.61-1.61h-12.26c-.89,0-1.61.72-1.61,1.61v8.43c0,.75.51,1.37,1.21,1.55v5.22h0c-.89,0-1.61.72-1.61,1.61v6.98h-2.42v-33.37h52.01v33.37h-1.53Zm-12.67-5.37h9.45v5.21h-9.45v-5.21Zm9.45-3.22h-9.45v-5.21h9.45v5.21Zm-32.17-8.38h-9.05v-5.21h9.05v5.21Zm-7.84,3.22h15.48v5.16h-15.48v-5.16Zm-1.61,8.38h15.48v5.21h-15.48v-5.21Zm-21.12-41.54l41.33-23.24,41.64,23.24v3.08h-82.97v-3.08Zm3.62,6.3h75.73v4.02h-75.73v-4.02h0Zm3.42,7.24h5.23v33.37h-5.23v-33.37Zm-10.38,42.49l5.21-5.9h79.24l5.21,5.9h-89.65Z"/>
    <g>
      <path class="uuid-6bf86bae-7561-4d70-b718-37dfefa5adb5" d="m487.78,784.38h24.44c.92,0,1.67-.75,1.67-1.67v-5.97c0-.92-.75-1.67-1.67-1.67h-24.44c-.92,0-1.67.75-1.67,1.67v5.97c0,.92.75,1.67,1.67,1.67Zm1.67-5.97h21.11v2.64h-21.11v-2.64Z"/>
      <path class="uuid-6bf86bae-7561-4d70-b718-37dfefa5adb5" d="m548.33,744.52h-13.96v-13.19c0-.57-.29-1.1-.77-1.41l-32.71-20.85c-.55-.35-1.25-.35-1.79,0l-32.71,20.85c-.48.31-.77.84-.77,1.41v13.19h-13.96c-.92,0-1.67.75-1.67,1.67v43.33c0,.92.75,1.67,1.67,1.67h96.67c.92,0,1.67-.75,1.67-1.67v-43.33c0-.92-.75-1.67-1.67-1.67Zm-79.37-12.28l31.04-19.78,31.04,19.78v12.21h-3.62v-7.27c0-2.97-2.42-5.39-5.39-5.39s-5.39,2.42-5.39,5.39v7.27h-3.92v-7.27c0-2.97-2.42-5.39-5.39-5.39s-5.39,2.42-5.39,5.39v7.27h-3.92v-7.27c0-2.97-2.42-5.39-5.39-5.39s-5.39,2.42-5.39,5.39v7.27h-3.92v-7.27c0-2.97-2.42-5.39-5.39-5.39s-5.39,2.42-5.39,5.39v7.27h-3.62v-12.21Zm55.13,4.94v7.34h-4.1v-7.34c0-1.13.92-2.05,2.05-2.05s2.05.92,2.05,2.05Zm-14.69,0v7.34h-4.1v-7.34c0-1.13.92-2.05,2.05-2.05s2.05.92,2.05,2.05Zm-14.69,0v7.34h-4.1v-7.34c0-1.13.92-2.05,2.05-2.05s2.05.92,2.05,2.05Zm-14.69,0v7.34h-4.1v-7.34c0-1.13.92-2.05,2.05-2.05s2.05.92,2.05,2.05Zm-26.68,17.34h18.75v2.64h-18.75v-2.64Zm0,11.94h18.75v2.64h-18.75v-2.64Zm0,11.94h18.75v2.64h-18.75v-2.64Zm93.33,2.64h-18.75v-2.64h18.75v2.64Zm0-11.94h-18.75v-2.64h18.75v2.64Zm0-11.94h-18.75v-2.64h18.75v2.64Zm0-5.97h-20.42c-.92,0-1.67.75-1.67,1.67v5.97c0,.92.75,1.67,1.67,1.67h20.42v2.64h-20.42c-.92,0-1.67.75-1.67,1.67v5.97c0,.92.75,1.67,1.67,1.67h20.42v2.64h-20.42c-.92,0-1.67.75-1.67,1.67v5.97c0,.92.75,1.67,1.67,1.67h20.42v3.47h-93.33v-3.47h20.42c.92,0,1.67-.75,1.67-1.67v-5.97c0-.92-.75-1.67-1.67-1.67h-20.42v-2.64h20.42c.92,0,1.67-.75,1.67-1.67v-5.97c0-.92-.75-1.67-1.67-1.67h-20.42v-2.64h20.42c.92,0,1.67-.75,1.67-1.67v-5.97c0-.92-.75-1.67-1.67-1.67h-20.42v-3.33h93.33v3.33h0Z"/>
      <path class="uuid-6bf86bae-7561-4d70-b718-37dfefa5adb5" d="m487.78,760.49h24.44c.92,0,1.67-.75,1.67-1.67v-5.97c0-.92-.75-1.67-1.67-1.67h-24.44c-.92,0-1.67.75-1.67,1.67v5.97c0,.92.75,1.67,1.67,1.67Zm1.67-5.97h21.11v2.64h-21.11v-2.64Z"/>
      <path class="uuid-6bf86bae-7561-4d70-b718-37dfefa5adb5" d="m487.78,772.44h24.44c.92,0,1.67-.75,1.67-1.67v-5.97c0-.92-.75-1.67-1.67-1.67h-24.44c-.92,0-1.67.75-1.67,1.67v5.97c0,.92.75,1.67,1.67,1.67Zm1.67-5.97h21.11v2.64h-21.11v-2.64Z"/>
    </g>
    <path class="uuid-6bf86bae-7561-4d70-b718-37dfefa5adb5" d="m200.38,776.11c.32.4.81.63,1.32.63h17.04c.94,0,1.7-.76,1.7-1.7v-14.34h9.57v14.34c0,.94.76,1.7,1.7,1.7s1.7-.76,1.7-1.7v-14.34h9.57v14.34c0,.94.76,1.7,1.7,1.7h10.63c.94,0,1.7-.76,1.7-1.7v-14.34h9.57v14.34c0,.94.76,1.7,1.7,1.7s1.7-.76,1.7-1.7v-14.34h9.57v14.34c0,.94.76,1.7,1.7,1.7h17.04s0,0,0,0c.94,0,1.7-.76,1.7-1.7,0-.19-.03-.36-.08-.53-2.47-11.16-8.72-21.3-17.63-28.57-1.33-1.08-2.71-2.08-4.13-3.02v-9.24h.26s0,0,0,0c.94,0,1.7-.76,1.7-1.7,0-.15-.02-.3-.06-.44l-1.09-6.86c-.13-.83-.84-1.43-1.68-1.43h-13.14c-.84,0-1.55.61-1.68,1.43l-1.12,7.03c-.08.49.06.99.39,1.37.32.38.8.6,1.29.6h.26v2.55c-4.31-1.16-8.78-1.77-13.3-1.77-4.88,0-9.72.72-14.36,2.07v-2.85h.26s0,0,0,0c.94,0,1.7-.76,1.7-1.7,0-.15-.02-.3-.06-.44l-1.09-6.86c-.13-.83-.84-1.43-1.68-1.43h-13.14c-.84,0-1.55.61-1.68,1.43l-1.12,7.03c-.08.49.06.99.39,1.37.32.38.8.6,1.29.6h.26v9.96c-1.05.73-2.07,1.49-3.07,2.3-8.95,7.3-15.23,17.51-17.67,28.74-.11.5.01,1.03.34,1.43Zm65.23-49.46h10.24l.58,3.62h-11.39l.58-3.62Zm9.15,7.03v7.17c-2.58-1.43-5.28-2.64-8.06-3.6v-3.57h8.06Zm-51.67-7.03h10.24l.58,3.62h-11.39l.58-3.62Zm1.09,14.8v-7.77h8.06v3.95c-1.82.67-3.6,1.46-5.33,2.34-.03.02-.06.03-.09.05-.56.28-1.11.58-1.65.88-.14.08-.27.15-.41.23-.19.11-.39.21-.59.33Zm25.82-3.59c21.58,0,40.65,14.8,46.14,35.48h-13.18v-14.34c0-.94-.76-1.7-1.7-1.7h-25.94c-.94,0-1.7.76-1.7,1.7v14.34h-7.23v-14.34c0-.94-.76-1.7-1.7-1.7h-25.94c-.94,0-1.7.76-1.7,1.7v14.34h-13.18c5.48-20.68,24.55-35.48,46.14-35.48Z"/>
    <g>
      <rect class="uuid-6bf86bae-7561-4d70-b718-37dfefa5adb5" x="710.64" y="755.85" width="3.83" height="3.4"/>
      <rect class="uuid-6bf86bae-7561-4d70-b718-37dfefa5adb5" x="718.08" y="755.85" width="3.83" height="3.4"/>
      <rect class="uuid-6bf86bae-7561-4d70-b718-37dfefa5adb5" x="725.53" y="755.85" width="3.83" height="3.4"/>
      <rect class="uuid-6bf86bae-7561-4d70-b718-37dfefa5adb5" x="732.98" y="755.85" width="3.83" height="3.4"/>
      <rect class="uuid-6bf86bae-7561-4d70-b718-37dfefa5adb5" x="740.43" y="755.85" width="3.83" height="3.4"/>
      <rect class="uuid-6bf86bae-7561-4d70-b718-37dfefa5adb5" x="747.87" y="755.85" width="3.83" height="3.4"/>
      <rect class="uuid-6bf86bae-7561-4d70-b718-37dfefa5adb5" x="755.32" y="755.85" width="3.83" height="3.4"/>
      <rect class="uuid-6bf86bae-7561-4d70-b718-37dfefa5adb5" x="762.77" y="755.85" width="3.83" height="3.4"/>
      <rect class="uuid-6bf86bae-7561-4d70-b718-37dfefa5adb5" x="770.21" y="755.85" width="3.83" height="3.4"/>
      <rect class="uuid-6bf86bae-7561-4d70-b718-37dfefa5adb5" x="777.66" y="755.85" width="3.83" height="3.4"/>
      <rect class="uuid-6bf86bae-7561-4d70-b718-37dfefa5adb5" x="785.11" y="755.85" width="3.83" height="3.4"/>
      <path class="uuid-6bf86bae-7561-4d70-b718-37dfefa5adb5" d="m799.93,747.91l-4.26-14.04c-.22-.72-.88-1.21-1.63-1.21h-13.3v-2.76c0-.94-.76-1.7-1.7-1.7h-10.11c-.94,0-1.7.76-1.7,1.7v2.76h-35.85v-2.76c0-.94-.76-1.7-1.7-1.7h-10.11c-.94,0-1.7.76-1.7,1.7v2.76h-11.91c-.75,0-1.41.49-1.63,1.21l-4.26,14.04c-.16.52-.06,1.07.26,1.51.32.43.83.69,1.37.69h.85v20c0,.94.76,1.7,1.7,1.7h91.49c.94,0,1.7-.76,1.7-1.7v-20h.85c.54,0,1.05-.26,1.37-.69.32-.43.42-.99.26-1.51Zm-29.29-13.55v-2.76h6.7v3.94h-6.7v-1.18Zm-49.36,0v-2.76h6.7v3.94h-6.7v-1.18Zm72.77,34.04h-88.09v-18.3h88.09v18.3Zm1.7-21.7h-91.75l3.23-10.64h10.65v1.18c0,.94.76,1.7,1.7,1.7h10.11c.94,0,1.7-.76,1.7-1.7v-1.18h35.85v1.18c0,.94.76,1.7,1.7,1.7h10.11c.94,0,1.7-.76,1.7-1.7v-1.18h12.03l3.23,10.64h-.26Z"/>
    </g>
    <path class="uuid-6bf86bae-7561-4d70-b718-37dfefa5adb5" d="m-49.62,1026.11c.32.4.81.63,1.32.63h17.04c.94,0,1.7-.76,1.7-1.7v-14.34h9.57v14.34c0,.94.76,1.7,1.7,1.7s1.7-.76,1.7-1.7v-14.34H-7.02v14.34c0,.94.76,1.7,1.7,1.7H5.31c.94,0,1.7-.76,1.7-1.7v-14.34h9.57v14.34c0,.94.76,1.7,1.7,1.7s1.7-.76,1.7-1.7v-14.34h9.57v14.34c0,.94.76,1.7,1.7,1.7h17.04s0,0,0,0c.94,0,1.7-.76,1.7-1.7,0-.19-.03-.36-.08-.53-2.47-11.16-8.72-21.3-17.63-28.57-1.33-1.08-2.71-2.08-4.13-3.02v-9.24h.26s0,0,0,0c.94,0,1.7-.76,1.7-1.7,0-.15-.02-.3-.06-.44l-1.09-6.86c-.13-.83-.84-1.43-1.68-1.43h-13.14c-.84,0-1.55.61-1.68,1.43l-1.12,7.03c-.08.49.06.99.39,1.37s.8.6,1.29.6h.26v2.55c-4.31-1.16-8.78-1.77-13.3-1.77-4.89,0-9.72.72-14.36,2.07v-2.85h.26s0,0,0,0c.94,0,1.7-.76,1.7-1.7,0-.15-.02-.3-.06-.44l-1.09-6.86c-.13-.83-.84-1.43-1.68-1.43h-13.14c-.84,0-1.55.61-1.68,1.43l-1.12,7.03c-.08.49.06.99.39,1.37s.8.6,1.29.6h.26v9.96c-1.05.73-2.07,1.49-3.07,2.3-8.95,7.3-15.23,17.51-17.67,28.74-.11.5.01,1.03.34,1.43Zm65.23-49.46h10.24l.58,3.62h-11.39l.58-3.62Zm9.15,7.03v7.17c-2.58-1.43-5.28-2.64-8.06-3.6v-3.57h8.06Zm-51.67-7.03h10.24l.58,3.62h-11.39l.58-3.62Zm1.09,14.8v-7.77h8.06v3.95c-1.82.67-3.6,1.46-5.33,2.34-.03.02-.06.03-.09.05-.56.28-1.11.58-1.65.88-.14.08-.27.15-.41.23-.19.11-.39.21-.59.33ZM0,987.86c21.58,0,40.65,14.8,46.14,35.48h-13.18v-14.34c0-.94-.76-1.7-1.7-1.7H5.31c-.94,0-1.7.76-1.7,1.7v14.34H-3.62v-14.34c0-.94-.76-1.7-1.7-1.7h-25.94c-.94,0-1.7.76-1.7,1.7v14.34h-13.18c5.48-20.68,24.55-35.48,46.14-35.48Z"/>
    <path class="uuid-6bf86bae-7561-4d70-b718-37dfefa5adb5" d="m950.38,1026.11c.32.4.81.63,1.32.63h17.04c.94,0,1.7-.76,1.7-1.7v-14.34h9.57v14.34c0,.94.76,1.7,1.7,1.7s1.7-.76,1.7-1.7v-14.34h9.57v14.34c0,.94.76,1.7,1.7,1.7h10.63c.94,0,1.7-.76,1.7-1.7v-14.34h9.57v14.34c0,.94.76,1.7,1.7,1.7s1.7-.76,1.7-1.7v-14.34h9.57v14.34c0,.94.76,1.7,1.7,1.7h17.04s0,0,0,0c.94,0,1.7-.76,1.7-1.7,0-.19-.03-.36-.08-.53-2.47-11.16-8.72-21.3-17.63-28.57-1.33-1.08-2.71-2.08-4.13-3.02v-9.24h.26s0,0,0,0c.94,0,1.7-.76,1.7-1.7,0-.15-.02-.3-.06-.44l-1.09-6.86c-.13-.83-.84-1.43-1.68-1.43h-13.14c-.84,0-1.55.61-1.68,1.43l-1.12,7.03c-.08.49.06.99.39,1.37s.8.6,1.29.6h.26v2.55c-4.31-1.16-8.78-1.77-13.3-1.77-4.88,0-9.72.72-14.36,2.07v-2.85h.26s0,0,0,0c.94,0,1.7-.76,1.7-1.7,0-.15-.02-.3-.06-.44l-1.09-6.86c-.13-.83-.84-1.43-1.68-1.43h-13.14c-.84,0-1.55.61-1.68,1.43l-1.12,7.03c-.08.49.06.99.39,1.37.32.38.8.6,1.29.6h.26v9.96c-1.05.73-2.07,1.49-3.07,2.3-8.95,7.3-15.23,17.51-17.67,28.74-.11.5.01,1.03.34,1.43Zm65.23-49.46h10.24l.58,3.62h-11.39l.58-3.62Zm9.15,7.03v7.17c-2.58-1.43-5.28-2.64-8.06-3.6v-3.57h8.06Zm-51.67-7.03h10.24l.58,3.62h-11.39l.58-3.62Zm1.09,14.8v-7.77h8.06v3.95c-1.82.67-3.6,1.46-5.33,2.34-.03.02-.06.03-.09.05-.56.28-1.11.58-1.65.88-.14.08-.27.15-.41.23-.19.11-.39.21-.59.33Zm25.82-3.59c21.58,0,40.65,14.8,46.14,35.48h-13.18v-14.34c0-.94-.76-1.7-1.7-1.7h-25.94c-.94,0-1.7.76-1.7,1.7v14.34h-7.23v-14.34c0-.94-.76-1.7-1.7-1.7h-25.94c-.94,0-1.7.76-1.7,1.7v14.34h-13.18c5.48-20.68,24.55-35.48,46.14-35.48Z"/>
    <path class="uuid-6bf86bae-7561-4d70-b718-37dfefa5adb5" d="m549.93,997.91l-4.26-14.04c-.22-.72-.88-1.21-1.63-1.21h-13.3v-2.76c0-.94-.76-1.7-1.7-1.7h-10.11c-.94,0-1.7.76-1.7,1.7v2.76h-35.85v-2.76c0-.94-.76-1.7-1.7-1.7h-10.11c-.94,0-1.7.76-1.7,1.7v2.76h-11.91c-.75,0-1.41.49-1.63,1.21l-4.26,14.04c-.16.52-.06,1.07.26,1.51.32.43.83.69,1.37.69h.85v20c0,.94.76,1.7,1.7,1.7h91.49c.94,0,1.7-.76,1.7-1.7v-20h.85c.54,0,1.05-.26,1.37-.69.32-.43.42-.99.26-1.51Zm-29.29-13.55v-2.76h6.7v3.94h-6.7v-1.18Zm-49.36,0v-2.76h6.7v3.94h-6.7v-1.18Zm72.77,34.04h-88.09v-18.3h88.09v18.3Zm1.7-21.7h-91.75l3.23-10.64h10.65v1.18c0,.94.76,1.7,1.7,1.7h10.11c.94,0,1.7-.76,1.7-1.7v-1.18h35.85v1.18c0,.94.76,1.7,1.7,1.7h10.11c.94,0,1.7-.76,1.7-1.7v-1.18h12.03l3.23,10.64h-.26Z"/>
    <path class="uuid-6bf86bae-7561-4d70-b718-37dfefa5adb5" d="m298.33,994.52h-13.96v-13.19c0-.57-.29-1.1-.77-1.41l-32.71-20.85c-.55-.35-1.25-.35-1.79,0l-32.71,20.85c-.48.31-.77.84-.77,1.41v13.19h-13.96c-.92,0-1.67.75-1.67,1.67v43.33c0,.92.75,1.67,1.67,1.67h96.67c.92,0,1.67-.75,1.67-1.67v-43.33c0-.92-.75-1.67-1.67-1.67Zm-79.37-12.28l31.04-19.78,31.04,19.78v12.21h-3.62v-7.27c0-2.97-2.42-5.39-5.39-5.39s-5.39,2.42-5.39,5.39v7.27h-3.92v-7.27c0-2.97-2.42-5.39-5.39-5.39s-5.39,2.42-5.39,5.39v7.27h-3.92v-7.27c0-2.97-2.42-5.39-5.39-5.39s-5.39,2.42-5.39,5.39v7.27h-3.92v-7.27c0-2.97-2.42-5.39-5.39-5.39s-5.39,2.42-5.39,5.39v7.27h-3.62v-12.21Zm55.13,4.94v7.34h-4.1v-7.34c0-1.13.92-2.05,2.05-2.05s2.05.92,2.05,2.05Zm-14.69,0v7.34h-4.1v-7.34c0-1.13.92-2.05,2.05-2.05s2.05.92,2.05,2.05Zm-14.69,0v7.34h-4.1v-7.34c0-1.13.92-2.05,2.05-2.05s2.05.92,2.05,2.05Zm-14.69,0v7.34h-4.1v-7.34c0-1.13.92-2.05,2.05-2.05s2.05.92,2.05,2.05Zm-26.68,17.34h18.75v2.64h-18.75v-2.64Zm0,11.94h18.75v2.64h-18.75v-2.64Zm0,11.94h18.75v2.64h-18.75v-2.64Zm93.33,2.64h-18.75v-2.64h18.75v2.64Zm0-11.94h-18.75v-2.64h18.75v2.64Zm0-11.94h-18.75v-2.64h18.75v2.64Zm0-5.97h-20.42c-.92,0-1.67.75-1.67,1.67v5.97c0,.92.75,1.67,1.67,1.67h20.42v2.64h-20.42c-.92,0-1.67.75-1.67,1.67v5.97c0,.92.75,1.67,1.67,1.67h20.42v2.64h-20.42c-.92,0-1.67.75-1.67,1.67v5.97c0,.92.75,1.67,1.67,1.67h20.42v3.47h-93.33v-3.47h20.42c.92,0,1.67-.75,1.67-1.67v-5.97c0-.92-.75-1.67-1.67-1.67h-20.42v-2.64h20.42c.92,0,1.67-.75,1.67-1.67v-5.97c0-.92-.75-1.67-1.67-1.67h-20.42v-2.64h20.42c.92,0,1.67-.75,1.67-1.67v-5.97c0-.92-.75-1.67-1.67-1.67h-20.42v-3.33h93.33v3.33h0Z"/>
    <path class="uuid-6bf86bae-7561-4d70-b718-37dfefa5adb5" d="m700.47,1022.97c.35.38.84.6,1.36.6h96.34c.52,0,1.01-.22,1.36-.6.35-.38.52-.9.46-1.41-1.24-12.32-7-23.71-16.2-32.08-9.26-8.42-21.26-13.06-33.79-13.06s-24.53,4.64-33.79,13.06c-9.2,8.37-14.95,19.76-16.2,32.08-.05.52.12,1.03.46,1.41Zm62.96-3.06h-11.6v-29.54h11.6v29.54Zm-15.27,0h-11.6v-29.54h11.6v29.54Zm1.83-39.83c23.33,0,42.8,16.98,46.1,39.83h-29v-31.38c0-1.01-.82-1.83-1.83-1.83h-30.53c-1.01,0-1.83.82-1.83,1.83v31.38h-29c3.3-22.84,22.77-39.83,46.1-39.83Z"/>
    <path class="uuid-6bf86bae-7561-4d70-b718-37dfefa5adb5" d="m46.1,456.17h-6.58c-2.15,0-3.9,1.75-3.9,3.9v14.12h-7.11v-16.77c0-1.08-.87-1.95-1.95-1.95H3.93c-1.08,0-1.95.87-1.95,1.95v16.77h-6.02v-21.8c0-1.08-.87-1.95-1.95-1.95h-25.48c-1.08,0-1.95.87-1.95,1.95v21.8h-2.19v-14.12c0-2.15-1.75-3.9-3.9-3.9h-6.58c-2.15,0-3.9,1.75-3.9,3.9v85.58c0,2.15,1.75,3.9,3.9,3.9h6.58c2.15,0,3.9-1.75,3.9-3.9v-3.22H35.61v3.22c0,2.15,1.75,3.9,3.9,3.9h6.58c2.15,0,3.9-1.75,3.9-3.9v-85.58c0-2.15-1.75-3.9-3.9-3.9Zm-92.19,89.49v-85.58h6.58v16.07s0,0,0,0v10.49s0,0,0,0v43.33s0,.01,0,.02v10.49s0,.01,0,.02v5.15s-6.59,0-6.59,0h0ZM5.88,459.38h18.71v14.81H5.88v-14.81Zm-35.4-5.04H-7.94v19.85h-21.57v-19.85Zm65.12,84.19H-35.61v-6.58H35.61v6.58Zm-64.53-10.49v-26.98H.35v26.98h-29.28Zm40.88,0v-13.44h16.83v13.44H11.96Zm23.65,0h-2.91v-15.39c0-1.08-.87-1.95-1.95-1.95H10.01c-1.08,0-1.95.87-1.95,1.95v15.39h-3.8v-28.93c0-1.08-.87-1.95-1.95-1.95H-30.88c-1.08,0-1.95.87-1.95,1.95v28.93h-2.78v-39.45H35.61v39.45Zm0-43.36H-35.61v-6.58H35.61v6.58Zm3.9,60.97v-85.58h6.58v85.58s-6.58,0-6.58,0Z"/>
    <path class="uuid-6bf86bae-7561-4d70-b718-37dfefa5adb5" d="m21.98,722.16s0-.04,0-.06c0-.07,0-.14-.02-.21,0-.01,0-.03,0-.04,0-.01,0-.02,0-.03,0,0,0-.01,0-.02-.01-.06-.03-.13-.05-.19,0-.03-.02-.05-.03-.08,0-.01,0-.02-.01-.03-.03-.08-.07-.15-.11-.22,0-.01-.02-.02-.02-.03,0,0,0-.01-.01-.02-.01-.02-.03-.04-.04-.07-.03-.04-.06-.08-.09-.12,0-.01-.01-.02-.02-.03-.01-.01-.02-.02-.03-.03-.02-.02-.04-.05-.06-.07,0,0,0,0,0,0l-20.18-20.37c-.34-.34-.8-.53-1.28-.53s-.94.19-1.28.53l-20.18,20.37s0,0,0,0c-.02.02-.04.05-.06.07-.01.01-.02.02-.03.03,0,0-.01.02-.02.03-.03.04-.06.08-.09.12-.02.02-.03.04-.04.07,0,0,0,.01-.01.02,0,.01-.02.02-.02.03-.04.07-.08.14-.11.22,0,0,0,.02-.01.03,0,.02-.02.05-.03.08-.02.06-.04.13-.05.19,0,0,0,.01,0,.02,0,0,0,.02,0,.03,0,.01,0,.03,0,.04-.01.07-.02.14-.02.21,0,.02,0,.04,0,.06,0,0,0,.01,0,.02v64.42c0,.64.34,1.24.9,1.56l20.18,11.6c.05.03.1.05.16.08.02,0,.04.02.05.03.05.02.11.04.16.06.02,0,.04.01.06.02.06.02.12.03.18.03.02,0,.03,0,.05,0,.08.01.15.02.23.02s.16,0,.23-.02c.02,0,.04,0,.06-.01.06,0,.11-.02.17-.03.02,0,.05-.02.07-.02.05-.02.1-.03.15-.05.02,0,.04-.02.06-.03.05-.02.1-.04.15-.07l20.18-11.6c.56-.32.9-.92.9-1.56v-64.42s0-.01,0-.02Zm-40.36,63.4v-8.39l12.12,15.36-12.12-6.97Zm16.58,6.81l-16.58-21.02v-6.75l16.58,21.02v6.75Zm0-12.56l-16.58-21.02v-6.52l16.58,21.02v6.52Zm0-12.34l-16.58-21.02v-6.75l16.58,21.02v6.75Zm0-12.56l-16.58-21.02v-6.52l16.58,21.02v6.52Zm0-12.34l-11.48-14.55,9.28,5.09,2.2,2.72v6.74Zm.07-12.32h-.01c-.08-.07-.17-.14-.26-.19l-15.21-8.32,15.49-15.64v24.14h0Zm3.6-24l15.35,15.5-15.21,8.32s-.09.06-.14.1v-23.91Zm-.07,29.58l2.2-2.72,9.28-5.09-11.48,14.55v-6.74Zm16.58,49.73l-12.12,6.97,12.12-15.36v8.39Zm0-14.21l-16.58,21.02v-6.75l16.58-21.02v6.75h0Zm0-12.56l-16.58,21.02v-6.52l16.58-21.02v6.52h0Zm0-12.34l-16.58,21.02v-6.75l16.58-21.02v6.75h0Zm0-12.56l-16.58,21.02v-6.52l16.58-21.02v6.52h0Z"/>
    <g>
      <path class="uuid-6bf86bae-7561-4d70-b718-37dfefa5adb5" d="m49.19,212.16c-.52-.34-1.19-.37-1.74-.09-.03.02-3.45,1.68-10.91,1.68-4.18,0-8.83-.52-13.83-1.53-16.94-3.45-21.12-10.74-21.15-10.8-.3-.57-.89-.93-1.54-.94,0,0-.01,0-.02,0-.64,0-1.23.36-1.54.92-.04.07-4.22,7.37-21.16,10.82-5,1.02-9.65,1.53-13.83,1.53-7.46,0-10.88-1.67-10.9-1.68-.55-.29-1.22-.26-1.75.07-.53.33-.84.92-.82,1.55.02.68.66,16.81,6.99,35.52,3.73,11.03,8.68,20.63,14.7,28.54,7.57,9.95,16.87,17.23,27.64,21.64.21.09.44.13.66.13s.45-.04.66-.13c10.77-4.41,20.07-11.69,27.64-21.64,6.02-7.91,10.97-17.51,14.7-28.54,6.33-18.71,6.97-34.84,6.99-35.52.02-.62-.29-1.2-.81-1.54Zm-9.51,35.93C34.08,264.63,22.67,286.26,0,295.86c-22.64-9.59-34.05-31.19-39.65-47.69-4.73-13.96-6.23-26.73-6.67-32.02,2.04.54,5.27,1.11,9.78,1.11s9.3-.54,14.53-1.6C-8.75,212.96-2.56,207.96,0,205.13c2.56,2.83,8.75,7.83,22.01,10.53,5.23,1.06,10.12,1.6,14.53,1.6s7.74-.57,9.78-1.11c-.44,5.28-1.92,17.99-6.64,31.94Z"/>
      <path class="uuid-6bf86bae-7561-4d70-b718-37dfefa5adb5" d="m22.3,234.42c0-.06-.02-.12-.04-.18,0-.01,0-.02-.01-.03-.02-.06-.04-.12-.06-.18,0,0,0-.02-.01-.03-.03-.06-.05-.12-.09-.18-.02-.03-.04-.06-.06-.09-.02-.03-.04-.07-.07-.1-.03-.04-.07-.08-.11-.12-.02-.02-.03-.03-.04-.05-.05-.05-.1-.09-.15-.13,0,0-.01-.01-.02-.02-.06-.05-.12-.09-.19-.13,0,0,0,0,0,0,0,0,0,0,0,0,0,0,0,0,0,0L.88,221.27c-.55-.31-1.22-.31-1.76,0l-20.57,11.95c-.06.03-.11.07-.16.11,0,0-.02.01-.03.02-.05.04-.09.07-.13.11-.01.01-.03.02-.04.04-.03.03-.06.07-.09.1-.02.02-.04.04-.06.07-.02.03-.04.06-.06.09-.02.03-.04.06-.06.09-.02.03-.03.06-.04.09-.02.04-.04.08-.06.12-.01.02-.02.05-.03.08-.02.05-.03.09-.05.14,0,.02,0,.05-.02.07-.01.05-.02.1-.03.15,0,.04,0,.07,0,.11,0,.04,0,.08,0,.12v26.14c0,.63.33,1.21.87,1.52l20.57,11.87c.2.12.43.19.65.22.07,0,.15.01.23.01.3,0,.61-.08.88-.24l20.57-11.87c.54-.31.88-.89.88-1.52v-26.19c0-.08,0-.16-.02-.23,0-.01,0-.03,0-.04ZM-1.75,269.72l-17.06-9.85v-22.09s17.06,9.85,17.06,9.85v22.09ZM0,244.58l-17.06-9.85L0,224.82l17.06,9.88L0,244.58Zm18.82,15.29l-17.06,9.85v-22.1l17.06-9.88v22.13Z"/>
    </g>
    <path class="uuid-6bf86bae-7561-4d70-b718-37dfefa5adb5" d="m1046.1,456.17h-6.58c-2.15,0-3.9,1.75-3.9,3.9v14.12h-7.11v-16.77c0-1.08-.87-1.95-1.95-1.95h-22.62c-1.08,0-1.95.87-1.95,1.95v16.77h-6.02v-21.8c0-1.08-.87-1.95-1.95-1.95h-25.48c-1.08,0-1.95.87-1.95,1.95v21.8h-2.19v-14.12c0-2.15-1.75-3.9-3.9-3.9h-6.58c-2.15,0-3.9,1.75-3.9,3.9v85.58c0,2.15,1.75,3.9,3.9,3.9h6.58c2.15,0,3.9-1.75,3.9-3.9v-3.22h71.21v3.22c0,2.15,1.75,3.9,3.9,3.9h6.58c2.15,0,3.9-1.75,3.9-3.9v-85.58c0-2.15-1.75-3.9-3.9-3.9Zm-92.19,89.49v-85.58h6.58v16.07s0,0,0,0v10.49s0,0,0,0v43.33s0,.01,0,.02v10.49s0,.01,0,.02v5.15s-6.59,0-6.59,0h0Zm51.98-86.28h18.71v14.81h-18.71v-14.81Zm-35.4-5.04h21.57v19.85h-21.57v-19.85Zm65.12,84.19h-71.21v-6.58h71.21v6.58Zm-64.53-10.49v-26.98h29.28v26.98h-29.28Zm40.88,0v-13.44h16.83v13.44h-16.83Zm23.65,0h-2.91v-15.39c0-1.08-.87-1.95-1.95-1.95h-20.74c-1.08,0-1.95.87-1.95,1.95v15.39h-3.8v-28.93c0-1.08-.87-1.95-1.95-1.95h-33.18c-1.08,0-1.95.87-1.95,1.95v28.93h-2.78v-39.45h71.21v39.45Zm0-43.36h-71.21v-6.58h71.21v6.58Zm3.9,60.97v-85.58h6.58v85.58s-6.58,0-6.58,0Z"/>
    <path class="uuid-6bf86bae-7561-4d70-b718-37dfefa5adb5" d="m1021.98,722.16s0-.04,0-.06c0-.07,0-.14-.02-.21,0-.01,0-.03,0-.04,0-.01,0-.02,0-.03,0,0,0-.01,0-.02-.01-.06-.03-.13-.05-.19,0-.03-.02-.05-.03-.08,0-.01,0-.02-.01-.03-.03-.08-.07-.15-.11-.22,0-.01-.02-.02-.02-.03,0,0,0-.01-.01-.02-.01-.02-.03-.04-.04-.07-.03-.04-.06-.08-.09-.12,0-.01-.01-.02-.02-.03-.01-.01-.02-.02-.03-.03-.02-.02-.04-.05-.06-.07,0,0,0,0,0,0l-20.18-20.37c-.34-.34-.8-.53-1.28-.53s-.94.19-1.28.53l-20.18,20.37s0,0,0,0c-.02.02-.04.05-.06.07-.01.01-.02.02-.03.03,0,0-.01.02-.02.03-.03.04-.06.08-.08.12-.02.02-.03.04-.04.07,0,0,0,.01-.01.02,0,.01-.02.02-.02.03-.04.07-.08.14-.11.22,0,0,0,.02-.01.03,0,.02-.02.05-.03.08-.02.06-.04.13-.05.19,0,0,0,.01,0,.02,0,0,0,.02,0,.03,0,.01,0,.03,0,.04-.01.07-.02.14-.02.21,0,.02,0,.04,0,.06,0,0,0,.01,0,.02v64.42c0,.64.34,1.24.9,1.56l20.18,11.6c.05.03.1.05.16.08.02,0,.04.02.05.03.05.02.11.04.16.06.02,0,.04.01.06.02.06.02.12.03.18.03.02,0,.03,0,.05,0,.08.01.15.02.23.02s.16,0,.23-.02c.02,0,.04,0,.06-.01.06,0,.11-.02.17-.03.02,0,.05-.02.07-.02.05-.02.1-.03.15-.05.02,0,.04-.02.06-.03.05-.02.1-.04.15-.07l20.18-11.6c.56-.32.9-.92.9-1.56v-64.42s0-.01,0-.02Zm-40.36,63.4v-8.39l12.12,15.36-12.12-6.97Zm16.58,6.81l-16.58-21.02v-6.75l16.58,21.02v6.75Zm0-12.56l-16.58-21.02v-6.52l16.58,21.02v6.52Zm0-12.34l-16.58-21.02v-6.75l16.58,21.02v6.75Zm0-12.56l-16.58-21.02v-6.52l16.58,21.02v6.52Zm0-12.34l-11.48-14.55,9.28,5.09,2.2,2.72v6.74Zm.07-12.32h-.01c-.08-.07-.17-.14-.26-.19l-15.21-8.32,15.49-15.64v24.14h0Zm3.6-24l15.35,15.5-15.21,8.32s-.09.06-.14.1v-23.91Zm-.07,29.58l2.2-2.72,9.28-5.09-11.48,14.55v-6.74Zm16.58,49.73l-12.12,6.97,12.12-15.36v8.39Zm0-14.21l-16.58,21.02v-6.75l16.58-21.02v6.75h0Zm0-12.56l-16.58,21.02v-6.52l16.58-21.02v6.52h0Zm0-12.34l-16.58,21.02v-6.75l16.58-21.02v6.75h0Zm0-12.56l-16.58,21.02v-6.52l16.58-21.02v6.52h0Z"/>
    <g>
      <path class="uuid-6bf86bae-7561-4d70-b718-37dfefa5adb5" d="m1049.19,212.16c-.52-.34-1.19-.37-1.74-.09-.03.02-3.45,1.68-10.91,1.68-4.18,0-8.83-.52-13.83-1.53-16.94-3.45-21.12-10.74-21.15-10.8-.3-.57-.89-.93-1.54-.94,0,0-.01,0-.02,0-.64,0-1.23.36-1.54.92-.04.07-4.22,7.37-21.16,10.82-5,1.02-9.65,1.53-13.83,1.53-7.46,0-10.88-1.67-10.9-1.68-.55-.29-1.22-.26-1.75.07-.53.33-.84.92-.82,1.55.02.68.66,16.81,6.99,35.52,3.73,11.03,8.68,20.63,14.7,28.54,7.57,9.95,16.87,17.23,27.64,21.64.21.09.44.13.66.13s.45-.04.66-.13c10.77-4.41,20.07-11.69,27.64-21.64,6.02-7.91,10.97-17.51,14.7-28.54,6.33-18.71,6.97-34.84,6.99-35.52.02-.62-.29-1.2-.81-1.54Zm-9.51,35.93c-5.6,16.54-17.01,38.17-39.68,47.78-22.64-9.59-34.05-31.19-39.65-47.69-4.73-13.96-6.23-26.73-6.67-32.02,2.04.54,5.27,1.11,9.78,1.11s9.3-.54,14.53-1.6c13.26-2.7,19.45-7.7,22.01-10.53,2.56,2.83,8.75,7.83,22.01,10.53,5.23,1.06,10.12,1.6,14.53,1.6s7.74-.57,9.78-1.11c-.44,5.28-1.92,17.99-6.64,31.94Z"/>
      <path class="uuid-6bf86bae-7561-4d70-b718-37dfefa5adb5" d="m1022.3,234.42c0-.06-.02-.12-.04-.18,0-.01,0-.02-.01-.03-.02-.06-.04-.12-.06-.18,0,0,0-.02-.01-.03-.03-.06-.05-.12-.09-.18-.02-.03-.04-.06-.06-.09-.02-.03-.04-.07-.07-.1-.03-.04-.07-.08-.11-.12-.01-.02-.03-.03-.04-.05-.05-.05-.1-.09-.15-.13,0,0-.01-.01-.02-.02-.06-.05-.12-.09-.19-.13,0,0,0,0,0,0,0,0,0,0,0,0,0,0,0,0,0,0l-20.56-11.9c-.55-.31-1.22-.31-1.76,0l-20.57,11.95c-.06.03-.11.07-.16.11,0,0-.02.01-.03.02-.05.04-.09.07-.13.11-.01.01-.03.02-.04.04-.03.03-.06.07-.09.1-.02.02-.04.04-.06.07-.02.03-.04.06-.06.09-.02.03-.04.06-.06.09-.02.03-.03.06-.04.09-.02.04-.04.08-.06.12-.01.02-.02.05-.03.08-.02.05-.03.09-.05.14,0,.02,0,.05-.01.07-.01.05-.02.1-.03.15,0,.04,0,.07,0,.11,0,.04,0,.08,0,.12v26.14c0,.63.33,1.21.87,1.52l20.57,11.87c.2.12.42.19.65.22.08,0,.15.01.23.01.3,0,.61-.08.88-.24l20.57-11.87c.54-.31.88-.89.88-1.52v-26.19c0-.08,0-.16-.02-.23,0-.01,0-.03,0-.04Zm-24.06,35.29l-17.06-9.85v-22.09s17.06,9.85,17.06,9.85v22.09Zm1.75-25.14l-17.06-9.85,17.07-9.92,17.06,9.88-17.07,9.89Zm18.82,15.29l-17.06,9.85v-22.1l17.06-9.88v22.13Z"/>
    </g>
  </g>
</svg>